<?xml version="1.0" encoding="utf-8"?>
<!-- Generator: Adobe Illustrator 21.0.0, SVG Export Plug-In . SVG Version: 6.00 Build 0)  -->
<svg version="1.1" id="图层_1" xmlns="http://www.w3.org/2000/svg"  x="0px" y="0px"
	 viewBox="12 41 243.5 153.1" style="enable-background:new -1 0 266.5 153.1;" xml:space="preserve">
<style type="text/css">
	.st0{fill:#AFDBED;}
</style>
<path class="st0" d="M11.1,103.9c0,0,3.5-5.1,9-4c0.8,0.2,1.5-0.2,1.9-0.9c1.3-2.6,4.9-8.4,11.2-9.9c0.8-0.2,2.8-0.4,3.5-0.5
	c2.6-0.2,9.2,0.3,14.5,8.8c0.3,0.5,0.9,0.9,1.6,0.8c2.5-0.2,9.1,0.3,16.9,8.7c0.5,0.6,1.4,0.7,2.1,0.3c2.1-1.3,6.8-3.7,10.9-2.4
	c0.7,0.2,1.5,0.1,1.9-0.5c1.6-2,5.9-6.4,12.4-6.1c0.4,0,1.8,0.1,2.8,0.2c2.8,0.4,8.6,2,11.6,8.2c0.3,0.5,0.8,0.9,1.4,0.9
	c1.8,0.1,5.6,0.4,8.7,1.9c0.8,0.4,1.8,0.1,2.2-0.7c1.6-3,5.9-9.5,12.3-9.2c0.8,0,1.4-0.4,1.7-1.1c1-2.7,3.9-8.4,10.7-6.7
	c0.5,0.1,0.9,0,1.2-0.4c1.8-2.4,8.8-10.8,18.2-7.2c0.7,0.3,2.8,1.3,3.9,2.2c1.6,1.3,3.5,2.8,5.1,7.2c0.2,0.5,0.7,0.8,1.2,0.7
	c2.6-0.3,10.4,0,15,13.8c0.4,1.1,1.6,1.5,2.6,0.9c4.6-3.1,16.5-9.4,28.5,0.2c0.4,0.3,1,0.5,1.5,0.3c1.8-0.5,6.2-1.5,8.4-1.4
	c0.6,0,1.2-0.2,1.5-0.7c2.3-3.3,10.8-13.8,20.9-7.6V42.8c0-1.9-1.5-3.4-3.4-3.4H14.7c-1.9,0-3.4,1.5-3.4,3.4L11.1,103.9z"/>
</svg>
