<?xml version="1.0" standalone="no"?>
<!DOCTYPE svg PUBLIC "-//W3C//DTD SVG 1.1//EN" "http://www.w3.org/Graphics/SVG/1.1/DTD/svg11.dtd" >
<!--
2013-9-30: Created.
-->
<svg>
<metadata>
Created by iconfont
</metadata>
<defs>

<font id="iconfont" horiz-adv-x="1024" >
  <font-face
    font-family="iconfont"
    font-weight="500"
    font-stretch="normal"
    units-per-em="1024"
    ascent="896"
    descent="-128"
  />
    <missing-glyph />
    
    <glyph glyph-name="x" unicode="x" horiz-adv-x="1001"
d="M281 543q-27 -1 -53 -1h-83q-18 0 -36.5 -6t-32.5 -18.5t-23 -32t-9 -45.5v-76h912v41q0 16 -0.5 30t-0.5 18q0 13 -5 29t-17 29.5t-31.5 22.5t-49.5 9h-133v-97h-438v97zM955 310v-52q0 -23 0.5 -52t0.5 -58t-10.5 -47.5t-26 -30t-33 -16t-31.5 -4.5q-14 -1 -29.5 -0.5
t-29.5 0.5h-32l-45 128h-439l-44 -128h-29h-34q-20 0 -45 1q-25 0 -41 9.5t-25.5 23t-13.5 29.5t-4 30v167h911zM163 247q-12 0 -21 -8.5t-9 -21.5t9 -21.5t21 -8.5q13 0 22 8.5t9 21.5t-9 21.5t-22 8.5zM316 123q-8 -26 -14 -48q-5 -19 -10.5 -37t-7.5 -25t-3 -15t1 -14.5
t9.5 -10.5t21.5 -4h37h67h81h80h64h36q23 0 34 12t2 38q-5 13 -9.5 30.5t-9.5 34.5q-5 19 -11 39h-368zM336 498v228q0 11 2.5 23t10 21.5t20.5 15.5t34 6h188q31 0 51.5 -14.5t20.5 -52.5v-227h-327z" />
    

    
    <glyph glyph-name="mima" unicode="&#59190;" d="M760.384 370.624l0 103.616c0 0-0.032 241.728-241.728 241.728-241.696 0-241.728-241.728-241.728-241.728l0-103.616L173.312 370.624l0-483.488L864-112.864 864 370.624 760.384 370.624zM553.184 103.936l0-113.184-69.056 0 0 113.184c-20.544 11.968-34.528 34.016-34.528 59.488 0 38.176 30.944 69.088 69.056 69.088 38.112 0 69.056-30.912 69.056-69.088C587.744 137.952 573.76 115.904 553.184 103.936M691.328 370.656 345.984 370.656l0 103.136c0.384 28.928 10.56 173.12 172.672 173.12s172.288-144.192 172.672-172.672L691.328 370.656z"  horiz-adv-x="1024" />

    
    <glyph glyph-name="man" unicode="&#58994;" d="M512.735246 222.999278c127.34534 0 230.601029 114.924449 230.601029 256.69636 0 141.770887-103.254665 256.695337-230.601029 256.695337-127.369899 0-230.600005-114.924449-230.600005-256.695337C282.13524 337.922704 385.365346 222.999278 512.735246 222.999278zM871.45728 68.981463c-41.637306 27.273157-204.981535 128.34818-204.981535 128.34818s-52.868091-1.604544-51.264571 0c-36.823674-40.108486-201.771423-22.460548-204.980511 0l-51.238988 0c0 0-107.290585-70.590731-204.980511-128.34818-124.913964-70.590731-75.253938-205.357088-25.619494-205.357088 44.846394 1.603521 704.609763 1.603521 768.68408 0C961.125509-137.980169 978.747865-6.422901 871.45728 68.981463z"  horiz-adv-x="1024" />

    
    <glyph glyph-name="tuichu1" unicode="&#58918;" d="M511.989654-211.999974C257.386307-211.999974 50.206841-4.8412 50.206841 249.782839c0 172.72887 95.220204 329.691162 248.458106 409.662063 14.00784 7.283249 31.38832 1.882885 38.712951-12.145645 7.324631-14.049222 1.882885-31.367629-12.166336-38.712951C190.968042 538.547107 107.562427 401.055092 107.562427 249.782839c0-223.008117 181.439801-404.406536 404.427227-404.406536 223.008117 0 404.427227 181.41911 404.427227 404.406536 0 155.182861-86.529963 294.247396-225.801409 362.941676-14.21475 7.014265-20.049626 24.187835-13.056051 38.402585 7.034956 14.235441 24.229217 20.008244 38.402585 13.056051 159.052087-78.439764 257.81046-237.202176 257.81046-414.400313C973.793159-4.8412 766.634384-211.999974 511.989654-211.999974zM511.989654 263.252712c-15.828652 0-28.677793 12.849141-28.677793 28.677793L483.311862 783.322207C483.332553 799.150859 496.181694 812 511.989654 812c15.849343 0 28.698484-12.849141 28.698484-28.677793l0-491.391703C540.688138 276.122543 527.838997 263.252712 511.989654 263.252712z"  horiz-adv-x="1024" />

    
    <glyph glyph-name="zhanghu" unicode="&#58939;" d="M867.072 25.12c3.2-10.048 5.952-23.04 7.68-38.848 1.536-16 2.432-31.808 2.432-47.616s-1.152-30.912-3.52-45.056c-2.304-14.08-5.952-25.024-10.624-32.384-3.392-4.736-13.056-9.792-28.928-15.168-16.064-5.44-35.392-10.688-58.24-15.744-23.104-4.992-48.832-9.664-77.568-14.144s-57.28-8.192-85.632-11.648c-28.352-3.584-55.872-6.208-82.624-8.128-26.624-2.176-49.856-3.136-69.376-3.136-29.632 0-64.832 2.304-105.344 6.656-40.512 4.416-80.064 9.536-118.592 15.744-38.528 6.016-72.32 12.224-101.376 18.688-29.056 6.464-46.592 11.968-52.736 16.64-7.424 5.504-12.992 21.952-16.704 49.664-3.712 27.712-2.24 63.04 4.608 106.304 4.032 24.96 14.208 43.904 30.4 56.704 16.192 12.928 35.328 22.976 57.344 30.4 21.952 7.552 44.608 14.272 67.968 20.288 23.36 6.144 43.776 14.912 61.376 26.24 14.144 8.96 25.088 17.344 32.896 25.344C328.256 173.984 333.632 182.112 336.64 190.304c3.072 8.064 4.544 16.512 4.544 25.28 0 8.832-0.32 18.24-0.96 28.416C338.88 260.192 333.632 272.736 324.544 281.44 315.392 290.208 305.088 299.36 293.568 308.768 288.256 313.504 283.456 320.096 279.424 328.544 275.392 336.928 271.744 345.504 268.288 354.4 264.896 364.448 261.504 374.88 258.176 385.76 253.44 387.04 248.704 389.472 243.968 392.864 239.936 396.192 235.584 400.928 230.784 407.072c-4.736 6.08-8.832 14.784-12.032 26.24C215.296 444.896 214.08 455.136 215.104 464.16c1.024 9.216 2.88 17.024 5.568 23.808C223.424 495.392 227.456 502.496 232.832 509.28 232.128 534.88 233.536 560.544 236.928 586.208c2.688 21.632 7.616 44.544 14.656 68.864 7.104 24.32 17.408 46.272 30.848 65.792 12.928 18.304 27.264 33.28 43.2 44.992C341.504 777.76 357.504 787.04 373.696 793.76c16.192 6.72 32.576 11.52 49.152 14.208C439.296 810.656 455.296 812 470.72 812c19.648 0 38.336-2.368 56.256-7.104 17.92-4.736 34.688-10.752 50.24-18.24C592.768 779.296 606.656 771.04 618.816 761.952c12.096-9.152 21.952-18.368 29.312-27.84 16.96-21.568 29.632-45.312 38.08-71.424 8.448-25.984 14.4-50.432 17.664-73.408 4.096-27.008 5.824-54.08 4.992-81.024 4.864-2.688 8.704-6.72 11.2-12.096 2.688-4.8 4.992-10.816 6.656-18.24 1.536-7.488 1.984-16.576 0.576-27.392-2.176-14.208-5.248-25.408-9.664-33.856-4.352-8.448-9.216-15.04-14.656-19.776-6.08-5.376-12.416-9.216-19.2-11.136-2.752-10.816-5.76-21.184-9.152-31.424-3.584-8.768-7.36-17.472-11.776-25.92-4.288-8.384-9.344-14.976-14.72-19.712-6.08-5.44-11.904-9.92-17.28-13.568C625.472 291.424 620.672 287.456 616.704 283.488 612.544 279.392 609.28 274.528 606.656 268.768c-2.816-5.76-4.864-12.608-6.272-20.672C598.4 237.92 597.888 227.552 598.4 217.184c0.832-10.56 3.392-20.992 8.128-31.424 4.672-10.496 12.416-20.48 23.296-29.888 10.752-9.408 25.28-17.856 43.52-25.408 16.896-6.592 35.328-12.48 55.168-17.6 19.968-5.12 39.168-11.2 57.856-18.24 18.432-7.04 35.008-16.064 49.6-26.752C850.688 56.864 860.992 42.656 867.072 25.12L867.072 25.12zM477.888-141.024c3.392 0 8.576 2.176 15.744 6.656 7.104 4.288 14.144 9.536 20.864 15.68 6.656 6.08 12.608 12.096 17.6 18.176 5.056 6.272 7.68 10.816 7.68 14.208 0 4.032-1.024 11.136-2.944 21.184-2.176 10.176-4.48 21.248-7.168 33.472-2.688 12.096-5.376 24.192-8 35.968-2.752 11.84-5.12 21.504-7.168 28.864 6.656 5.504 12.48 11.328 17.28 17.728 4.672 6.464 7.04 12.992 7.04 19.712 0 5.44-1.856 11.008-5.568 16.704-3.648 5.76-7.872 10.688-12.672 14.656-5.376 4.736-11.136 9.408-17.216 14.336L452.672 116.32c-6.784-4.8-12.48-9.472-17.28-14.336-4.032-4.032-7.808-8.832-11.136-14.208-3.392-5.312-5.056-10.752-5.056-16.128 0-4.032 2.56-9.408 7.616-16.32 5.056-6.656 11.264-13.12 18.816-19.264-2.048-6.08-4.864-14.72-8.128-26.176-3.456-11.52-6.592-23.36-9.6-36.032-3.072-12.48-5.76-24.384-8.064-35.392-2.432-11.136-3.52-19.52-3.52-24.832 0-3.392 2.56-7.936 7.616-14.208 5.12-6.08 11.136-12.096 18.304-18.176 7.04-6.08 14.016-11.328 20.736-15.68C469.376-138.72 474.496-141.024 477.888-141.024L477.888-141.024z"  horiz-adv-x="1024" />

    
    <glyph glyph-name="xiazai" unicode="&#58929;" d="M478.0032 79.1744c14.1312-14.1312 37.0688-14.1312 51.2 0l334.8992 329.216c14.1312 14.1312 15.7184 38.8096 0 51.1488-38.8096 30.5152-70.7072 0-70.7072 0l-267.3664-261.6832c-12.3904-12.3904-32.4608-12.3904-44.8 0l-248.32 258.7136c0 0-28.5184 32.8192-70.7584-0.0512-15.7696-12.2368-14.1312-37.0176 0-51.1488L478.0032 79.1744zM511.3344 290.1696c26.9824 0 48.7936 21.8624 48.7936 48.7936L560.128 703.9168c0 26.9824-21.8624 48.8448-48.7936 48.8448-26.9824 0-48.8448-21.8624-48.8448-48.8448l0-364.9536C462.4896 312.032 484.352 290.1696 511.3344 290.1696zM1022.6176 94.8928c0 12.1344-4.864 23.0912-12.8 31.0272s-18.8928 12.8-31.0272 12.8c-24.2176 0-43.776-19.6096-43.776-43.8272l0-136.2432-847.36-0.0512 0 136.2944c0 24.2176-19.6096 43.8272-43.8272 43.8272S0 119.1616 0 94.8928l0.0512-179.968C0.0512-85.1264 0-85.1264 0-85.1264c0-12.1344 4.9152-23.0912 12.8512-31.0272l0 0c2.8672-2.8672 7.6288-2.6624 11.2128-4.608 6.2976-3.4816 12.032-8.192 19.7632-8.192l0.0512 0 934.9632 0 0 0c24.2176 0 43.8272 19.6096 43.8272 43.8272l0 0L1022.6176 94.8928z"  horiz-adv-x="1024" />

    
    <glyph glyph-name="hospital" unicode="&#58880;" d="M11.01231 143.414709 11.01231 452.959717l1006.066559 0 0-309.545008L11.01231 143.414709 11.01231 143.414709zM359.282295-204.836857 359.282295 801.229702l309.546032 0 0-1006.066559L359.282295-204.836857 359.282295-204.836857z"  horiz-adv-x="1024" />

    
    <glyph glyph-name="tuxiang" unicode="&#58934;" d="M859.072-96h-505.131c0 0-161.749 0-215.659 0-31.616 0-51.115 14.997-68.48 34.091-17.493 19.2-27.136 44.117-27.136 70.123v559.168c0 57.451 46.741 104.213 104.213 104.213h712.171c57.472 0 104.213-46.741 104.213-104.213v-205.248c0-0.299 0-0.533-0.021-0.832-0.021-0.491-2.027-53.248 15.957-88 4.864-9.408 1.173-20.949-8.213-25.792-9.387-4.885-20.928-1.216-25.792 8.213-21.931 42.368-20.437 100.544-20.203 106.795v204.885c0 36.373-29.568 65.92-65.941 65.92h-712.171c-36.352 0-65.92-29.547-65.92-65.92v-559.168c0-33.749 25.045-61.952 58.389-65.707l719.701-0.213c36.352 0 65.92 29.547 65.92 65.92l-0.405 105.088c-0.107 1.792-1.643 20.117-20.117 43.755-0.043 0.085-0.107 0.128-0.149 0.213l-22.357 29.333-120.704 159.701c-0.427 0.576-40.149 52.373-88.832 46.869-39.467-4.416-78.208-46.507-112-121.621-18.155-40.299-35.669-70.293-53.632-91.669-18.133-21.632-36.736-34.539-56.896-39.467-44.715-10.965-83.456 19.541-124.48 51.883l-5.205 4.075c-47.936 37.675-70.784 29.035-163.029-61.376-7.552-7.424-19.669-7.296-27.072 0.256-7.403 7.573-7.275 19.669 0.277 27.093 48.043 47.125 79.851 74.88 110.251 86.784 34.347 13.419 66.197 6.464 103.211-22.677l5.248-4.117c34.944-27.499 65.088-51.243 91.669-44.757 26.368 6.464 54.869 43.371 84.715 109.675 40.299 89.579 88.384 138.005 142.912 144 70.485 7.744 121.323-59.093 123.456-61.952l120.597-159.573 22.229-29.163c27.051-34.624 28.139-63.467 28.181-66.667 0-0.043 0-0.085 0-0.128l0.405-105.451c0.021-57.6-46.72-104.341-104.171-104.341zM302.187 371.413c-43.584 0-79.040 43.669-79.040 87.253s35.456 79.040 79.040 79.040 79.040-35.456 79.040-79.040-35.456-87.253-79.040-87.253zM302.187 499.413c-22.464 0-40.768-18.283-40.768-40.747s18.283-48.96 40.768-48.96 40.747 26.496 40.747 48.96-18.283 40.747-40.747 40.747z"  horiz-adv-x="1024" />

    
    <glyph glyph-name="zhouqizhang1" unicode="&#58964;" d="M778.678857 774.851048l0 97.52381-48.761905 0 0-97.52381L292.571429 774.851048l0 97.52381-48.761905 0 0-97.52381L24.380952 774.851048l0-877.714286 975.238095 0 0 877.714286L778.678857 774.851048zM950.857143 604.94019 73.142857 604.94019l0-48.761905 877.714286 0 0-610.279619L73.142857-54.101333l0 780.190476 170.666667 0 0-48.761905 48.761905 0 0 48.761905 437.345524 0 0-48.761905 48.761905 0 0 48.761905L950.857143 726.089143 950.857143 604.94019zM876.202667 432.761905 146.285714 432.761905l0-144.774095 729.916952 0L876.202667 432.761905zM828.952381 336.749714 195.047619 336.749714l0 48.006095 633.904762 0L828.952381 336.749714z"  horiz-adv-x="1024" />

    
    <glyph glyph-name="iconset0336" unicode="&#59115;" d="M896 725.333333 128 725.333333c-46.933333 0-85.333333-38.4-85.333333-85.333333l0-512c0-46.933333 38.4-85.333333 85.333333-85.333333l768 0c46.933333 0 85.333333 38.4 85.333333 85.333333L981.333333 640C981.333333 686.933333 942.933333 725.333333 896 725.333333zM128 682.666667l768 0c4.266667 0 10.666667 0 14.933333-2.133333L541.866667 311.466667C533.333333 302.933333 522.666667 298.666667 512 298.666667c-10.666667 0-21.333333 4.266667-29.866667 12.8L113.066667 680.533333C117.333333 682.666667 123.733333 682.666667 128 682.666667zM85.333333 128 85.333333 640c0 2.133333 0 4.266667 0 6.4L349.866667 384 85.333333 121.6C85.333333 123.733333 85.333333 125.866667 85.333333 128zM896 85.333333 128 85.333333c-4.266667 0-10.666667 0-14.933333 2.133333l266.666667 266.666667 72.533333-72.533333C469.333333 264.533333 490.666667 256 512 256c21.333333 0 42.666667 8.533333 59.733333 23.466667l72.533333 72.533333 266.666667-266.666667C906.666667 85.333333 900.266667 85.333333 896 85.333333zM938.666667 128c0-2.133333 0-4.266667 0-6.4L674.133333 384 938.666667 646.4c0-2.133333 0-4.266667 0-6.4L938.666667 128z"  horiz-adv-x="1024" />

    
    <glyph glyph-name="jiancha" unicode="&#58884;" d="M879.774648 84.732394l-144.225352 144.225352c46.873239 57.690141 72.112676 129.802817 72.112676 205.521127 0 86.535211-32.450704 169.464789-97.352113 234.366197-61.295775 61.295775-144.225352 97.352113-234.366197 97.352113S310.084507 726.535211 248.788732 665.239437c-61.295775-61.295775-97.352113-144.225352-97.352113-234.366197 0-86.535211 32.450704-169.464789 97.352113-234.366197 61.295775-61.295775 144.225352-97.352113 234.366197-97.352113 75.71831 0 147.830986 25.239437 205.521127 72.112676l144.225352-144.225352L879.774648 84.732394zM299.267606 250.591549c-46.873239 46.873239-75.71831 111.774648-75.71831 180.28169 0 68.507042 25.239437 133.408451 75.71831 180.28169 46.873239 46.873239 111.774648 75.71831 180.28169 75.71831s133.408451-25.239437 180.28169-75.71831c46.873239-46.873239 75.71831-111.774648 75.71831-180.28169 0-68.507042-25.239437-133.408451-75.71831-180.28169-46.873239-46.873239-111.774648-75.71831-180.28169-75.71831S349.746479 203.71831 299.267606 250.591549z"  horiz-adv-x="1024" />

    
    <glyph glyph-name="jianyan" unicode="&#58883;" d="M932.023704 6.920876l-0.218988 0.435928c-2.713808 4.461615-66.124 112.307855-129.711224 219.274052-80.46973 135.482671-124.986619 208.691019-136.051629 224.084615l-0.611937 0.874927L665.429927 795.194106l62.622246 0c11.636015 0 21.123087 8.266267 21.123087 18.499329 0 10.233062-9.487072 18.542308-21.123087 18.542308L289.987069 832.235744c-11.629875 0-21.076014-8.309246-21.076014-18.542308 0-10.233062 9.44614-18.499329 21.076014-18.499329l62.625316 0 0-343.779717-0.567935-0.874927c-10.190083-15.261589-52.522214-88.425935-129.49326-223.64664-62.184271-109.330034-124.109646-219.010039-124.633578-219.927945-10.104125-18.151405-11.19804-35.555797-3.061732-49.068556 8.220219-13.687744 24.576745-21.211091 46.049802-21.211091l51.997258 0c13.424754 0 24.314779 10.320043 24.314779 23.046902l0 0.656963c0 12.68081-10.890025 23.003923-24.314779 23.003923l-57.552787 0 2.974751 5.158487c30.567179 51.691289 202.043622 351.782995 253.822916 442.569698l0.960885 1.750877 231.956909 0 1.046842-1.707898C665.254941 365.962182 862.179986 38.143994 891.56934-11.358443l2.797719-4.680603-5.508457-0.479931c-0.961908 0-2.013867-0.086981-3.104711-0.086981L323.576071-16.605957c-13.470803 0-24.314779-10.324136-24.314779-23.003923l0-0.698918c0-12.727882 10.843976-23.046902 24.314779-23.046902l565.459562 0c21.471011 0 37.783535 7.565303 46.093804 21.208021C943.259606-28.631852 942.123736-11.186528 932.023704 6.920876zM617.937263 488.847953 400.1951 488.847953 400.1951 785.443022 617.937263 785.443022 617.937263 488.847953zM754.950799 174.328653c-17.842367 29.912263-33.849946 56.763818-48.149627 80.729649l-53.574173 0c44.783972-74.519204 99.184977-165.135014 139.068336-231.692896l52.042283 0C819.981908 64.559621 787.48682 119.530606 754.950799 174.328653z"  horiz-adv-x="1024" />

    
    <glyph glyph-name="tubiaoqiehuan" unicode="&#59043;" d="M125.217 69.328v615.377h-57.759v-673.129l900.837-0.014v57.759l-843.078 0.005zM686.159 460.321h-118.854v-332.123h118.854v332.123zM852.774 626.937h-118.854v-498.738h118.854v498.738zM519.542 569.175h-118.853v-440.978h118.854v440.978h-0.001zM350.703 354.793h-118.85v-226.595h118.849v226.595h0.001zM350.703 354.793z"  horiz-adv-x="1024" />

    
    <glyph glyph-name="shezhi" unicode="&#59475;" d="M512 614.4c-121.6 0-211.2-96-211.2-217.6s96-217.6 211.2-217.6c121.6 0 211.2 96 211.2 217.6S627.2 614.4 512 614.4z m128-217.6c0-70.4-57.6-128-128-128s-128 57.6-128 128 57.6 128 128 128 128-51.2 128-128zM1011.2 492.8c0 12.8-12.8 25.6-32 32-44.8 6.4-83.2 38.4-108.8 83.2-25.6 44.8-32 89.6-19.2 140.8 6.4 12.8 0 32-12.8 38.4C793.6 832 736 864 672 883.2c-6.4 12.8-19.2 12.8-32 0-32-38.4-76.8-57.6-128-57.6-44.8 0-89.6 19.2-128 57.6-6.4 0-19.2 12.8-38.4 6.4-70.4-25.6-121.6-57.6-166.4-96-12.8-6.4-19.2-25.6-12.8-38.4 12.8-51.2 6.4-102.4-19.2-140.8C128 576 89.6 544 38.4 531.2c-12.8-6.4-25.6-19.2-25.6-32C0 460.8 0 428.8 0 396.8s6.4-70.4 12.8-96c0-19.2 12.8-32 32-32 44.8-6.4 83.2-38.4 108.8-83.2 25.6-44.8 32-89.6 19.2-140.8-6.4-12.8 0-32 12.8-38.4 44.8-44.8 102.4-76.8 166.4-102.4h12.8c12.8 0 25.6 6.4 25.6 12.8 32 38.4 76.8 57.6 128 57.6 44.8 0 89.6-19.2 128-57.6 6.4-6.4 12.8-12.8 25.6-12.8h12.8c64 25.6 121.6 57.6 166.4 96 12.8 6.4 19.2 25.6 12.8 38.4-12.8 51.2-6.4 96 19.2 140.8 19.2 38.4 64 70.4 115.2 83.2 12.8 6.4 19.2 19.2 25.6 32-6.4 38.4 0 70.4 0 102.4s-6.4 70.4-12.8 96z m-64-89.6c0-19.2 0-38.4-6.4-64-57.6-19.2-102.4-57.6-140.8-115.2-25.6-57.6-38.4-121.6-25.6-179.2-32-25.6-64-44.8-102.4-64-44.8 38.4-102.4 64-166.4 64-57.6 0-121.6-25.6-166.4-64-38.4 19.2-70.4 38.4-102.4 64 12.8 57.6 0 121.6-25.6 179.2-25.6 57.6-76.8 96-134.4 115.2 0 19.2-6.4 38.4-6.4 64 0 19.2 0 44.8 6.4 64 57.6 12.8 108.8 57.6 140.8 108.8 25.6 57.6 38.4 121.6 25.6 179.2 32 25.6 64 44.8 102.4 64 44.8-38.4 108.8-64 166.4-64 57.6 0 115.2 19.2 166.4 64 38.4-19.2 70.4-38.4 102.4-64-12.8-64 0-128 25.6-179.2 32-57.6 83.2-96 140.8-115.2v-57.6z"  horiz-adv-x="1024" />

    
    <glyph glyph-name="404" unicode="&#58881;" d="M958.957811 723.096437c0 6.638499 0 13.293987-0.391734 19.9115-2.626219 44.451662-44.658522 84.169733-89.183334 84.190719-118.450291 0.052964-236.901781 0.015989-355.352071 0.015989l0-0.28081c-119.562137 0-239.124274 0.07395-358.686411-0.031978-48.83529-0.041972-90.935546-42.856743-90.384919-91.464787 0.200864-17.703997 0.402327-35.418986 0.396731-53.123782-0.079346-164.928778 1.244156-329.869548-1.095657-494.767348-0.858018-59.921173 52.0645-103.960315 100.359756-99.024661 19.165406 1.958672 38.70156 0.22185 58.079022 0.168885 7.379996-0.020986 12.992591-0.529641 10.95897-11.15044-2.864058-14.929878-4.61627-30.155355-5.64857-45.341059-1.138828-16.760636 8.624553-28.822259 19.054081-40.76636 5.410931-6.204793 9.01129-14.220159 12.431571-21.854183 1.964268-4.405013 0.645562-10.536856 3.144868-14.348272 2.572656-3.918343 7.888052-7.867666 12.218716-8.132486 2.827483-0.158892 9.090836 6.724441 8.609163 9.582503-3.409688 20.363194 7.681792 27.66924 24.968072 30.887858 3.663516 0.688533 7.015244 3.197832 10.429929 5.018597 40.538915 21.591361 72.902972 53.198731 105.198875 85.048137 5.346775 5.284417 13.823628 10.166107 20.997164 10.367971 39.268176 1.122239 78.594513 1.206182 117.867886 0.41272 7.302049-0.148899 15.730335-4.447984 21.495426-9.35066 21.018749-17.851896 40.517529-37.516564 61.742938-55.10344 21.706283-17.989803 45.283098-33.630199 72.531624-42.206184 20.659993-6.511585 20.485111-5.982944 19.029098-27.753183-0.269817-4.034265 2.339414-10.261043 5.51626-11.97588 3.547595-1.9167 11.192412-1.640887 13.531825 0.910383 3.176846 3.462652 3.134875 9.964244 4.236128 15.215684 2.127558 10.113143 0.69353 23.496869 6.713448 29.839569 24.512381 25.82549 24.756215 55.357468 17.090413 86.414211-3.134875 12.706385 1.366074 14.316294 12.054827 14.104437 22.115006-0.433706 44.286774 0.932368 66.353812-0.1479 51.672966-2.509299 97.087974 47.288738 96.516362 98.421071C957.750629 365.531666 958.978796 544.322046 958.957811 723.096437zM330.872852 25.412067c-11.562561-8.799034-25.708969-15.046798-39.590957-19.790582-22.474163-7.687788-40.205141 5.284417-42.301719 29.076086-0.285806 3.282774-0.042371 6.617513-0.042371 9.921273 0.174881 29.743634 16.264373 51.99155 35.408993 72.225831 23.951161 25.328827 54.48446 41.306994 86.228737 53.971208 28.531656 11.393275 58.349239 19.599711 87.732717 28.79048 4.500349 1.408045 9.783767 1.090261 14.6015 0.571612 9.519546-1.027303 12.420979-6.787398 8.349939-15.152726-4.817734-9.900288-9.202161-20.372188-15.89922-28.93838C426.542188 106.425939 380.915124 63.48925 330.872852 25.412067zM463.506926 118.718605c15.068184 22.491751 27.869504 41.603793 40.904067 61.044412 13.547815-19.737618 26.456063-38.542668 41.899392-61.044412L463.506926 118.718605zM764.056554 20.65729c-7.745748-17.090413-22.473763-22.755372-40.63445-16.899542-29.033315 9.360653-52.69907 27.265514-74.782098 47.163023-27.83213 25.083993-55.448206 50.539534-81.378625 77.540228-14.338279 14.929878-26.250202 32.601896-37.028894 50.381641-8.958926 14.769986-2.563262 22.955436 15.193699 23.770883 20.182316-5.421324 40.618261-10.038194 60.492786-16.422865 33.651184-10.821663 66.693582-23.560026 95.907775-43.922021 27.409416-19.102049 51.349985-41.581808 61.805896-74.894022C768.504338 51.863133 771.135754 36.296687 764.056554 20.65729zM931.623543 442.129532c-0.031978-85.218022-0.216853-170.435045-0.359756-255.642075-0.047967-30.824101-13.263008-53.631438-42.778996-64.020394-11.648103-4.108215-24.936093-4.679827-37.499575-4.806741-26.937536-0.26482-53.918243 0.33877-80.833995 1.672866-6.391666 0.317785-14.073458 3.356724-18.615379 7.77273-54.490056 52.900933-122.257909 77.688127-194.737568 91.867514-15.91421 3.112889-33.195493 3.727473-47.113857-9.465582-1.937686-1.842751-9.148797-1.229167-11.436246 0.89939-13.098119 12.250694-29.404464 11.764024-44.027549 8.428286-67.868385-15.512483-133.634596-36.879995-183.041898-89.506115-14.627483-15.586432-31.559003-10.620799-47.558555-11.764024-21.887161-1.556944-44.027949 0.603591-66.063009 1.079268-38.161526 0.805454-64.220858 26.842801-64.273822 64.887806-0.137507 91.306894-0.042371 182.612789-0.042371 273.919483-0.031579 0-0.052964 0-0.084343 0 0 91.284909 0.82584 182.58081-0.41332 273.854726-0.481673 35.314057 30.845487 67.281183 62.156258 66.275865 31.469664-1.006318 62.992091-0.116921 94.493134-0.005996 81.21014 0.28081 162.419879 0.842429 243.624623 0.815447 102.28685-0.036975 204.574299-0.54563 306.860748-0.862415 22.078031-0.074949 44.15986 0.020986 66.237891-0.333774 38.161926-0.61958 65.078677-27.382435 65.247562-66.163941C931.787432 634.732547 931.660318 538.434038 931.623543 442.129532zM801.408029 569.78778c-25.814498 22.320866-55.822952 37.388451-88.203998 46.84404-18.338566 5.358367-37.843142 7.121172-56.966177 9.111822-4.331064 0.449695-9.270714-4.876694-13.935552-7.544885 4.14519-3.414685 7.814702-7.930623 12.548492-9.964244 6.161822-2.636213 13.172069-3.292768 19.810568-4.806741 0-1.50398 0-3.006961 0-4.510942-4.912669-3.430674-9.773374-6.935298-14.739007-10.282029-34.752438-23.417123-49.147478-70.742836-32.862719-108.120494 21.745257-49.904964 66.788517-68.075645 115.740328-51.006218 41.793464 14.581114 63.077034 45.690822 58.587078 95.679929-0.614583 6.892327-1.292124 10.948577 7.275068 13.183062 12.451558 3.250796 13.579793 8.232418 5.522256 18.54043C810.482877 561.644301 805.972934 565.837458 801.408029 569.78778zM644.265972 537.025992c0.450694 8.423289 10.361975 17.947831 18.843224 18.106724 10.292022 0.190871 18.848221-8.418292 18.842225-18.95315 0-11.235382-7.384993-18.387533-18.969139-18.372543C653.505707 517.818015 643.774305 527.813239 644.265972 537.025992zM675.41885 451.828956c-12.372611 0.190871-23.755894 13.173069-23.733908 27.075643 0.020986 13.500846 12.186737 25.391784 25.533688 24.958078 12.060823-0.386738 23.502066-12.675406 23.576015-25.317835C700.884384 463.424094 689.66619 451.622096 675.41885 451.828956zM740.799322 472.19115c-20.479115 0.629573-37.887113 20.542072-37.378657 42.747018 0.518648 22.416801 21.272577 41.931371 43.593444 40.999203 20.197306-0.846426 39.708078-22.575694 39.332133-43.8051C785.927525 488.503091 766.427946 471.402685 740.799322 472.19115zM340.132974 594.405889c-4.187561 2.917022-8.365328 5.85603-10.668167 7.464939 7.454346 7.687788 18.217648 14.698035 17.185348 18.488465-3.02295 11.048509-14.421622 5.506267-22.659637 5.934976-0.550627 0.025982-1.101253-0.100932-1.65188-0.142903-39.442658-3.160857-72.453277-22.120003-103.917344-43.795307-11.626517-8.005572-21.611747-18.853218-30.898051-29.658891-8.640142-10.05918-6.316118-16.581758 6.321114-17.830911 10.625796-1.059282 10.4723-6.141836 10.451314-14.290311-0.068953-34.328725 15.115152-60.423833 44.890364-77.398324 27.938458-15.925203 56.459121-17.148373 84.958198-0.952354C393.992257 476.2474 397.079164 554.788949 340.132974 594.405889zM226.404881 540.970318c-1.38706 8.476253 9.604488 19.647679 18.31858 19.583722 8.872984-0.062957 17.026856-8.715091 17.317659-18.376541 0.344367-11.235382-5.733513-17.652032-16.613736-17.699C234.229576 524.430532 228.099133 530.619336 226.404881 540.970318zM257.663088 459.627668c-12.46295-0.062957-25.62003 13.231029-25.402777 25.682587 0.238438 14.179386 11.181819 23.803861 26.50403 23.317191 14.474187-0.455691 22.839515-9.635467 22.617066-24.820172C281.180544 469.438017 271.623623 459.696622 257.663088 459.627668zM324.175793 478.332986c-21.632733-0.105928-39.908942 17.97981-40.168166 39.760842-0.28081 22.850507 17.587476 43.031625 39.453251 42.455015 24.682265-0.651558 40.396012-16.534789 42.015913-42.477001C366.620415 499.796434 344.998075 477.210747 324.175793 478.332986zM504.781942 338.805986c-37.457604-0.603591-63.150984-16.486822-83.883327-40.692411-4.415606-5.146511-3.685102-14.687042-5.326988-22.204945 6.671477 1.228167 13.537821 1.810772 19.97046 3.801423 19.345883 6.00293 38.119555 15.269647 57.878159 18.233638 26.248603 3.928337 50.820943-5.505267 73.682443-18.922171 3.975305-2.340413 9.523543-2.001643 14.347273-2.89104-0.746494 5.125525 0.115921 11.331317-2.494309 15.216683C560.298102 319.184289 536.08272 338.414251 504.781942 338.805986zM730.496308 396.715523c-2.393377-1.619902-7.201118-1.694851-9.975237-0.434705-20.806893 9.423611-28.991344 7.793716-44.519816-10.455911l72.791447 0c0.275813 1.539956 0.550627 3.085908 0.82644 4.63186C745.034451 397.096265 740.730369 403.671807 730.496308 396.715523zM274.149311 404.736085c-3.854387-1.053286-6.872341-5.172493-10.271036-7.883655 3.711484-1.492988 7.501914-4.405013 11.128855-4.209146 11.975281 0.640566 23.888204 2.409366 35.831706 3.743462 0.031978-0.295799 0.063957-0.592598 0.100932-0.894394 1.646284-0.094936 3.314153-0.428709 4.924061-0.237839 3.726873 0.438703 7.422368 1.132232 11.133452 1.719834-3.329742 2.398374-6.659885 4.801744-9.98463 7.206114C302.887226 414.34457 288.35428 408.63744 274.149311 404.736085z"  horiz-adv-x="1024" />

    
    <glyph glyph-name="10" unicode="&#58893;" d="M865.166 192.398v273.067c-5.461 148.366-113.778 282.169-256.683 318.578v6.372c0 57.344-39.14 105.586-96.484 105.586-58.254 0-96.484-48.242-96.484-105.586v-6.372c-147.456-40.050-246.67-166.571-256.683-318.578v-273.067l-96.484-99.214v-92.843h292.181c16.384-73.728 80.1-128.341 157.468-128.341s141.084 54.613 157.468 128.341h292.181v92.843l-96.484 99.214zM512 835.015c19.115 0 31.858-16.384 31.858-38.229h-63.716c0 21.845 12.743 38.229 31.858 38.229zM512-64.284c-41.87 0-77.369 25.486-90.112 64.626h180.224c-12.743-39.14-48.242-64.626-90.112-64.626zM897.024 64.057h-770.048v3.641l95.573 99.214v295.822c0 138.354 152.007 269.426 289.451 269.426 139.264 0 288.54-130.162 288.54-269.426v-295.822l96.484-99.214v-3.641z"  horiz-adv-x="1024" />

    
    <glyph glyph-name="xingbie-weizhi" unicode="&#58931;" d="M773.906442 862.656601h-523.812884c-119.66415 0-216.750159-97.086009-216.750159-216.750159v-523.812884c0-119.7364 97.086009-216.750159 216.750159-216.750159h523.812884c119.66415 0 216.750159 97.013759 216.750159 216.750159v523.812884c0 119.66415-97.086009 216.750159-216.750159 216.750159z m-272.350187-721.232541c-33.021887 1.762901-50.448599 17.358075-52.142863 46.919184 3.457165 31.327623 20.81524 48.685698 52.142863 52.211501 31.327623-3.529415 48.685698-20.883878 52.215113-52.211501-1.835151-29.561109-19.193227-45.156283-52.215113-46.919184z m46.995047 208.636478v-23.423468c-1.762901-29.633359-17.426713-45.297171-46.991435-46.991434-29.564722 1.694264-45.228533 17.358075-46.919184 46.991434v65.194836c0 13.90091 14.746236 25.189981 44.310957 33.867212 3.457165 1.762901 6.137642 2.611839 7.831906 2.611839 38.241953 8.677231 56.445354 27.798208 54.754703 57.431568-3.457165 29.492472-21.732816 46.001609-54.754703 49.531023-20.883878 0-41.771368-12.206646-62.582996-36.547689-17.426713-19.120977-33.090524-28.647146-46.919184-28.647146-24.413293 1.694264-37.465265 17.358075-39.159529 46.919184 6.91433 62.582996 56.517604 99.130685 148.661709 109.574431 100.828561-6.98658 153.957638-53.905764 159.105454-140.829803-0.003613-69.569576-39.163141-114.798109-117.337698-135.681987z"  horiz-adv-x="1024" />

    
    <glyph glyph-name="guahao" unicode="&#58924;" d="M803.84-108.15999999999997H223.36c-58.24 0-105.6 47.36-105.6 105.6v729.6c0 58.24 47.36 105.6 105.6 105.6h580.48c58.24 0 105.6-47.36 105.6-105.6v-729.6c0-58.24-47.36-105.6-105.6-105.6z m-580.48 883.2c-26.24 0-48-21.76-48-48v-729.6c0-26.24 21.76-48 48-48h580.48c26.24 0 48 21.76 48 48v729.6c0 26.24-21.76 48-48 48H223.36zM389.12 622.72c-29.44 0-52.48-23.68-52.48-52.48s23.68-52.48 52.48-52.48 52.48 23.68 52.48 52.48c0.64 28.8-23.04 52.48-52.48 52.48z m0-76.8c-13.44 0-24.32 10.88-24.32 24.32 0 13.44 10.88 24.32 24.32 24.32 13.44 0 24.32-10.88 24.32-24.32 0-13.44-10.88-24.32-24.32-24.32zM456.32 509.44c-10.88 8.32-23.68 10.88-37.76 7.04-1.92-0.64-5.12-1.92-8.96-3.2-6.4-2.56-17.28-6.4-22.4-6.4-3.84 0-12.8 3.84-18.56 5.76-3.84 1.92-7.68 3.2-9.6 3.84-13.44 3.84-26.88 1.28-37.76-7.04-14.72-11.52-24.96-33.92-24.96-58.24s19.84-43.52 43.52-43.52h96.64c24.32 0 43.52 19.84 43.52 44.16 1.28 23.68-8.32 46.08-23.68 57.6zM423.04 435.2H355.2c-10.88 0-19.84 8.96-19.84 19.84 0 12.8 5.12 26.24 13.44 32 5.12 3.84 10.88 5.12 17.28 3.2 1.28-0.64 3.2-1.28 5.76-1.92 7.04-2.56 12.8-5.12 17.28-5.12 5.12 0 11.52 2.56 19.84 5.12 1.92 0.64 3.84 1.28 5.12 1.92 6.4 1.92 12.16 0.64 17.28-3.2 7.68-5.76 13.44-18.56 13.44-32-1.92-10.88-10.88-19.84-21.76-19.84zM709.76 167.67999999999995H311.04c-16 0-28.8 12.8-28.8 28.8s12.8 28.8 28.8 28.8h398.72c16 0 28.8-12.8 28.8-28.8s-12.8-28.8-28.8-28.8zM709.76 300.79999999999995H311.04c-16 0-28.8 12.8-28.8 28.8s12.8 28.8 28.8 28.8h398.72c16 0 28.8-12.8 28.8-28.8s-12.8-28.8-28.8-28.8zM709.12 433.92H557.44c-16 0-29.44 12.8-29.44 28.8s13.44 28.8 29.44 28.8h151.68c16 0 29.44-12.8 29.44-28.8s-13.44-28.8-29.44-28.8zM709.12 536.96H557.44c-16 0-29.44 12.8-29.44 28.8s13.44 28.8 29.44 28.8h151.68c16 0 29.44-12.8 29.44-28.8s-13.44-28.8-29.44-28.8z"  horiz-adv-x="1024" />

    
    <glyph glyph-name="feiyong" unicode="&#59141;" d="M512-90.88c-255.36 0-474.88 207.36-474.88 474.88C37.12 639.36 245.12 858.88 512 858.88c255.36 0 474.88-207.36 474.88-474.88 0-266.88-208-474.88-474.88-474.88z m0 872.32c-225.28 0-409.6-183.68-409.6-409.6 0-225.28 183.68-403.2 409.6-403.2 225.28 0 409.6 183.68 409.6 409.6 0 225.28-184.32 403.2-409.6 403.2z m-29.44-456.96H363.52c-23.68 0-35.84 12.16-35.84 23.68 0 17.92 12.16 29.44 35.84 29.44h94.72L328.32 574.0799999999999s-10.88 17.28-12.8 29.44c-3.2 18.56 11.52 30.08 24.96 30.08 12.16 0 20.48-6.4 35.84-29.44L518.4 396.8l142.72 207.36c8.96 13.44 17.92 17.92 35.84 17.92 12.16 0 32-12.8 32-30.08 0-5.76 1.28-11.52-8.32-28.8L589.44 378.24H678.4c17.92 0 35.84-5.76 35.84-29.44 0-12.16-8.32-29.44-35.84-29.44H553.6v-53.12H678.4c17.92 0 35.84-5.76 35.84-29.44 0-12.16-8.96-29.44-35.84-29.44H553.6v-124.8c0-17.92-12.16-35.84-35.84-35.84-17.92 0-35.84 12.16-35.84 35.84v130.56H358.4c-16.64 0-30.72 13.44-30.08 30.08 0 17.28 12.16 29.44 35.84 29.44h130.56v53.12l-12.16-1.28z m0 0"  horiz-adv-x="1024" />

    
    <glyph glyph-name="fanhui" unicode="&#58887;" d="M505.6 601.6V825.6L0 441.6l505.6-390.4V281.6c204.8 0 364.8-25.6 505.6-300.8l12.8-32v32c0 403.2-172.8 614.4-518.4 620.8zM448 339.20000000000005v-166.4L96 441.6 448 710.4v-172.8h44.8c262.4 0 409.6-121.6 454.4-364.8-147.2 172.8-320 172.8-454.4 172.8H448z"  horiz-adv-x="1024" />

    
    <glyph glyph-name="girl" unicode="&#58920;" d="M833.8-43.5H892s-7.7 160.9-95 190c-97.5 32.5-190 45.4-190 76v57s52.2-23.3 110.4 5.8C819.8 336.5 835 317.5 835 317.5s-88.5 50.5-88.5 142.4 32.7 169.3-25.5 256.6c-58.2 87.3-176 95-209 95-25.2 0-150.8-7.7-209-95-64.2-96.3-22.1-164.7-22.1-256.6 0-91.9-91.9-142.4-91.9-142.4s29.1 13.8 121-32.2c58.2-29.1 107-5.8 107-5.8v-57c0-30.6-92-45.4-190-76-98.1-30.6-95-190-95-190h701.8z"  horiz-adv-x="1024" />

    
    <glyph glyph-name="liebiao2" unicode="&#58921;" d="M870.4-96H153.6c-51.2 0-96 44.8-96 96V768c0 51.2 44.8 96 96 96h716.8c51.2 0 96-44.8 96-96v-768c0-51.2-44.8-96-96-96zM153.6 806.4c-19.2 0-38.4-19.2-38.4-38.4v-768c0-19.2 19.2-38.4 38.4-38.4h716.8c19.2 0 38.4 19.2 38.4 38.4V768c0 19.2-19.2 38.4-38.4 38.4H153.6z m0 0M268.8 524.8c-12.8 0-32 12.8-32 32s19.2 32 32 32c19.2 0 32-12.8 32-32s-12.8-32-32-32z m473.6 0H384c-19.2 0-32 12.8-32 32s12.8 32 32 32h364.8c19.2 0 32-12.8 32-32-6.4-19.2-19.2-32-38.4-32z m0-166.4H384c-19.2 0-32 12.8-32 32s12.8 32 32 32h364.8c19.2 0 32-12.8 32-32-6.4-19.2-19.2-32-38.4-32z m0-166.4H384c-19.2 0-32 12.8-32 32s12.8 32 32 32h364.8c19.2 0 32-12.8 32-32-6.4-19.2-19.2-32-38.4-32zM268.8 364.79999999999995c-12.8 0-32 12.8-32 25.6 0 19.2 12.8 32 32 32s32-12.8 32-32c0-12.8-12.8-25.6-32-25.6z m0-166.4c-19.2 0-32 12.8-32 32 0 12.8 19.2 25.6 32 25.6 19.2 0 32-12.8 32-32 0-12.8-12.8-25.6-32-25.6z m0 0"  horiz-adv-x="1024" />

    
    <glyph glyph-name="shunxu" unicode="&#59164;" d="M384 742.4c-15.36 0-25.6-10.24-25.6-25.6v-604.16l-138.24 138.24c-10.24 10.24-25.6 10.24-35.84 0s-10.24-25.6 0-35.84l179.2-179.2s5.12-5.12 10.24-5.12c5.12-5.12 15.36-5.12 20.48-5.12 5.12 0 5.12 5.12 10.24 5.12 0 0 5.12 5.12 5.12 10.24V716.8c0 15.36-10.24 25.6-25.6 25.6zM839.68 552.96l-179.2 179.2s-5.12 5.12-10.24 5.12c-5.12 5.12-15.36 5.12-20.48 5.12-5.12 0-5.12-5.12-10.24-5.12 0 0-5.12-5.12-5.12-10.24v-675.84c0-15.36 10.24-25.6 25.6-25.6s25.6 10.24 25.6 25.6V655.36l138.24-138.24c10.24-10.24 25.6-10.24 35.84 0s10.24 25.6 0 35.84z"  horiz-adv-x="1024" />

    
    <glyph glyph-name="zuoyou" unicode="&#58922;" d="M777.852 359.146l-473.689-473.689c-7.581-7.581-18.053-12.269-29.621-12.269-23.135 0-41.89 18.755-41.89 41.89 0 11.568 4.689 22.040 12.269 29.621l448.846 448.846-434.434 434.514c-6.915 7.152-11.176 16.908-11.176 27.658 0 21.988 17.825 39.813 39.813 39.813 10.751 0 20.506-4.261 27.669-11.186l450.428-450.428c5.447-5.544 9.262-12.708 10.658-20.703-0.864 5.573 0.33 6.291 1.127 5.097 7.558-7.576 12.232-18.032 12.232-29.581 0-11.548-4.674-22.005-12.233-29.581z"  horiz-adv-x="1024" />

    
    <glyph glyph-name="zuoyou1" unicode="&#58923;" d="M246.148 408.854l473.689 473.689c7.581 7.581 18.053 12.269 29.621 12.269 23.135 0 41.89-18.755 41.89-41.89 0-11.568-4.689-22.040-12.269-29.621l-448.846-448.846 434.434-434.514c6.915-7.152 11.176-16.908 11.176-27.658 0-21.988-17.825-39.813-39.813-39.813-10.751 0-20.506 4.261-27.669 11.186l-450.428 450.428c-5.447 5.544-9.262 12.708-10.658 20.703 0.864-5.573-0.33-6.291-1.127-5.097-7.558 7.576-12.232 18.032-12.232 29.581 0 11.548 4.674 22.005 12.233 29.581z"  horiz-adv-x="1024" />

    
    <glyph glyph-name="biaoge1" unicode="&#59058;" d="M826.368 729.6H179.2c-28.672 0-47.616-18.944-47.616-47.616v-609.28c0-52.224 43.008-95.232 95.232-95.232h551.936c52.224 0 95.232 43.008 95.232 95.232v609.28c0 28.672-19.456 47.616-47.616 47.616zM359.936 25.088H179.2v142.848h180.736v-142.848z m0 190.464H179.2V358.4h180.736v-142.848z m0 190.464H179.2V548.864h180.736v-142.848z m232.96-380.928H407.552v142.848h185.344v-142.848z m0 190.464H407.552V358.4h185.344v-142.848z m0 190.464H407.552V548.864h185.344v-142.848z m233.472-380.928h-185.344v142.848h185.344v-142.848z m0 190.464h-185.344V358.4h185.344v-142.848z m0 190.464h-185.344V548.864h185.344v-142.848z"  horiz-adv-x="1024" />

    
    <glyph glyph-name="arrow" unicode="&#58885;" d="M512.133 271.019l-292.16 292.155c-12.27 12.28-32.186 12.28-44.457 0-12.281-12.27-12.281-32.186 0-44.457l314.388-314.388c12.27-12.28 32.186-12.28 44.457 0l314.387 314.388c6.14 6.136 9.211 14.183 9.211 22.228s-3.071 16.092-9.211 22.228c-12.27 12.28-32.186 12.28-44.457 0l-292.159-292.155z"  horiz-adv-x="1024" />

    
    <glyph glyph-name="sousuo" unicode="&#58889;" d="M862.609 79.045l-136.228 136.226c39.168 46.138 67.052 103.046 78.678 165.663-3.424-29.229 6.121 18.031 6.121 66.731 0 48.701-9.545 95.96-28.369 140.467-18.176 42.973-44.19 81.56-77.319 114.689-33.13 33.129-71.717 59.144-114.69 77.32-44.507 18.825-91.767 28.37-140.467 28.37-48.701 0-95.96-9.545-140.467-28.37-42.973-18.176-81.56-44.19-114.689-77.32-33.13-33.129-59.144-71.717-77.32-114.689-18.825-44.507-28.37-91.767-28.37-140.467 0-48.7 9.545-95.96 28.37-140.467 18.176-42.974 44.19-81.561 77.32-114.69 33.129-33.129 71.717-59.144 114.689-77.319 44.507-18.824 91.767-28.369 140.467-28.369 48.7 0 95.96 9.545 140.467 28.369 32.78 13.864 62.997 32.303 90.197 54.968 0.063-0.064 0.122-0.132 0.186-0.195l136.169-136.17c6.25-6.25 14.438-9.373 22.628-9.373 8.188 0 16.38 3.125 22.627 9.372 12.496 12.496 12.496 32.758 0 45.254zM450.335 148.511c-79.907 0-155.031 31.118-211.534 87.62-56.503 56.503-87.62 131.627-87.62 211.534s31.117 155.031 87.62 211.534c56.502 56.503 131.626 87.62 211.534 87.62s155.031-31.117 211.534-87.62c56.502-56.502 87.62-131.626 87.62-211.534s-31.118-155.031-87.62-211.534c-56.503-56.502-131.627-87.62-211.534-87.62z"  horiz-adv-x="1024" />

    
    <glyph glyph-name="yiyuan" unicode="&#59091;" d="M512-82.944c-53.248 0-102.4 20.48-139.264 57.344l-274.432 274.432c-36.864 36.864-57.344 86.016-57.344 139.264 0 53.248 20.48 102.4 57.344 139.264l274.432 274.432c36.864 36.864 86.016 57.344 139.264 57.344s102.4-20.48 139.264-57.344l274.432-274.432c36.864-36.864 57.344-86.016 57.344-139.264 0-53.248-20.48-102.4-57.344-139.264l-274.432-274.432c-36.864-36.864-86.016-57.344-139.264-57.344z m0 876.544c-36.864 0-69.632-12.288-94.208-40.96l-274.432-274.432c-24.576-24.576-40.96-57.344-40.96-94.208s12.288-69.632 40.96-94.208l274.432-274.432c49.152-49.152 139.264-49.152 188.416 0l274.432 274.432c24.576 24.576 40.96 57.344 40.96 94.208s-12.288 69.632-40.96 94.208l-274.432 274.432c-24.576 28.672-57.344 40.96-94.208 40.96zM360.448 404.48h307.2c16.384 0 32.768-12.288 32.768-32.768 0-16.384-12.288-32.768-32.768-32.768h-307.2c-16.384 0-32.768 12.288-32.768 32.768s12.288 32.768 32.768 32.768zM524.288 568.32c16.384 0 32.768-12.288 32.768-32.768v-307.2c0-16.384-12.288-32.768-32.768-32.768-16.384 0-32.768 12.288-32.768 32.768v307.2c0 20.48 12.288 32.768 32.768 32.768z"  horiz-adv-x="1024" />

    
    <glyph glyph-name="gongxiang1" unicode="&#58888;" d="M963.84 241.27999999999997c5.76 29.44 8.96 59.52 8.96 89.6 0 195.84-126.72 370.56-314.24 432.64C650.24 837.76 586.88 893.44 512 893.44S373.76 837.76 365.44 763.52C177.92 701.44 51.2 526.72 51.2 330.88c0-30.08 3.2-60.16 8.96-89.6-58.88-44.16-74.88-124.8-38.4-188.16 36.48-63.36 115.2-90.24 183.68-62.72 174.72-154.88 439.04-154.88 613.76 0 68.48-27.52 146.56-1.28 183.68 62.72 35.84 63.36 19.84 144-39.04 188.16zM512 813.44c30.72 0 56.96-20.48 64.64-49.92 7.68-29.44-6.4-60.16-32.64-74.24-26.88-14.08-60.16-8.96-80.64 13.44-20.48 22.4-23.04 55.68-6.4 80.64 12.16 19.2 32.64 30.08 55.04 30.08zM149.12 59.51999999999998c-28.8 0-55.04 18.56-63.36 46.08-8.32 27.52 1.92 57.6 26.24 73.6s56.32 15.36 78.72-2.56c23.04-17.92 31.36-48.64 20.48-75.52-10.24-24.96-34.56-41.6-62.08-41.6zM512-45.440000000000055c-88.32 0-174.08 30.72-242.56 87.04 32 44.16 35.84 103.04 10.24 151.04-25.6 48.64-75.52 78.72-130.56 78.72-3.84 0-8.32 0-12.16-0.64-3.2 19.84-5.12 40.32-5.12 60.16 0 161.28 103.04 299.52 247.68 352.64C404.48 633.6 455.68 602.24 512 602.24c56.32 0 107.52 32 132.48 81.92 144.64-53.12 247.68-191.36 247.68-352.64 0-20.48-1.92-40.32-5.12-60.16-3.84 0.64-8.32 0.64-12.16 0.64-55.04 0-105.6-30.08-130.56-78.72-25.6-48-21.12-106.88 10.24-151.04-68.48-56.96-154.24-87.68-242.56-87.68z m371.2 105.6c-27.52-3.2-53.76 10.24-66.56 34.56-12.8 24.32-8.96 53.76 8.96 74.24 18.56 20.48 47.36 27.52 72.96 17.92s42.88-33.92 42.88-61.44c-0.64-33.28-25.6-60.8-58.24-65.28z m0 0"  horiz-adv-x="1024" />

    
    <glyph glyph-name="qianbao" unicode="&#58948;" d="M863.72209 12.760864c-14.024761-22.981104-28.870733-47.040048-51.325748-61.911684-44.217132-29.230014-105.692547-29.743271-154.528996-9.508094-151.911383 63.169164-303.553306 127.031227-455.516014 190.033582C137.873361 158.192371 92.077962 219.423989 102.432932 288.09784c6.569696 43.626886 28.229161 92.527492 47.835597 131.612049 70.778207 141.35111 259.785274 223.58779 410.734299 229.682723 1.642424 0.064157-22.313869 48.977595-24.982808 56.88176-12.985414 38.494311-18.913538 67.711493-7.827176 107.399128 13.601323 48.759461 53.892035 47.912586 76.757656 43.626886 21.082051-4.01624 53.596912-41.868979 56.458323-40.778307 62.091324 23.468698 132.895193-6.569696 159.30229-67.647336 1.42429-3.284848 3.310511-3.207859 6.107764-3.195028 40.431858 0.230966 73.241843-2.912736 91.526641-39.777454 13.524335-27.228309 8.327603-41.060598-8.982006-67.775651-8.160794-10.650093-41.150419-34.478071-52.775701-41.265901a484.887174 484.887174 0 0 0-82.390657-38.199188c-0.282292-0.115483 47.476317-52.762869 54.19999-64.46514 62.463435-108.066363 101.676307-187.852238 85.239236-305.798807-8.635557-61.963009-17.271114-122.168112-49.91429-175.63671zM864.286674 506.912335c-9.238635 12.100045-19.670593 23.327553-29.512306 34.965666 3.644128 1.757907 6.621022 2.822916 9.572252 3.92642 30.372011 11.407148 59.858654 26.946018 81.78758 50.697007 10.62443 11.548293 14.319884 16.899003 23.032429 28.062353 23.032429 37.121347 25.778357 64.388151 10.162499 94.529197-21.094882 40.739813-56.573806 59.332565-102.125408 59.627688-3.156534 0-5.286552 0-6.928976 3.592802C819.620441 849.870984 739.449623 883.874292 669.813414 858.891484c-3.259185-1.167661-5.132575-1.000852-7.698862 1.655256-16.539722 17.822866-37.082853 28.729587-60.898 33.425893-45.128164 8.905017-94.080096-11.548293-107.86106-61.719212-11.946068-43.511403-10.637261-85.970628 4.516666-128.532505 3.105208-8.725377 6.710842-17.283946 10.26515-26.265951-1.847727-0.08982-3.695454-0.218134-5.543181-0.269461-170.042203-4.683475-325.187108-104.358077-403.048268-258.912736C77.963381 375.531252 60.114853 336.613503 55.598187 282.939602c-6.415719-75.859456 28.729587-151.770237 101.740464-182.078091 172.06957-71.419778 343.792692-143.712095 515.823768-215.196031 55.252168-22.981104 107.976543-16.321588 157.390407 15.256579 25.111122 16.039296 41.676507 39.661972 58.66533 63.746579 6.928976 9.816049 0.898201-12.536314 20.068367 33.361736s41.740665 102.651496 48.759461 155.940455c16.950328 129.533357-13.3062 247.646734-93.66949 352.941506z m-0.564584-494.138639c-14.024761-22.981104-28.870733-47.040048-51.325748-61.911684-44.217132-29.242845-105.692547-29.756102-154.528996-9.520926-151.911383 63.169164-303.553306 127.031227-455.516014 190.033582C137.873361 158.192371 92.077962 219.423989 102.432932 288.09784c6.569696 43.626886 28.229161 92.527492 47.835597 131.612049 70.778207 141.35111 259.785274 223.58779 410.734299 229.682723 1.642424 0.064157-22.313869 48.977595-24.982808 56.88176-12.985414 38.494311-18.913538 67.711493-7.827176 107.399128 13.601323 48.759461 53.892035 47.912586 76.757656 43.626886 21.082051-4.01624 53.596912-41.868979 56.458323-40.778307 62.091324 23.468698 132.895193-6.569696 159.30229-67.647336 1.42429-3.284848 3.310511-3.207859 6.107764-3.195028 40.431858 0.230966 73.241843-2.912736 91.526641-39.777454 13.524335-27.228309 8.327603-41.060598-8.982006-67.775651-8.160794-10.650093-41.150419-34.478071-52.775701-41.265901a484.887174 484.887174 0 0 0-82.390657-38.199188c-0.282292-0.115483 47.476317-52.762869 54.19999-64.46514 62.463435-108.066363 101.676307-187.852238 85.239236-305.798807-8.635557-61.963009-17.271114-122.168112-49.91429-175.63671zM557.230386 491.694251c-3.952083 10.393464-16.180442 41.394216-16.180442 41.394216l-42.04862 17.566237s-5.863967-14.435367-7.698862-18.708235 59.922811-151.269811 59.922811-151.269811l-104.961155 43.84502-17.540574-41.984462 104.961155-43.84502-17.668889-42.343742-104.820009 43.780863-17.437923-41.740665L498.834516 254.582126l-35.145306-84.148564 42.048619-17.566237 34.773194 84.302541 105.487244-44.063155 17.540574 41.984462-105.166457 43.922009L575.566509 321.151621l105.346098-44.011829 17.540574 41.984462-105.346097 44.011829 150.243296 63.477119 7.788682 18.65691L709.270083 462.836349s-51.261591-20.068368-62.874041-25.521728c-4.503834-1.42429-39.597815-17.206957-56.573806-24.11027l-32.514862 78.4899z"  horiz-adv-x="1024" />

    
    <glyph glyph-name="baobiao" unicode="&#58995;" d="M741.76 165.76H343.04c-17.92 0-27.52-14.72-27.52-28.8 0-14.72 9.6-28.8 27.52-28.8h398.72c17.92 0 27.52 14.72 27.52 28.8s-9.6 28.8-27.52 28.8z m0 0M712.32 855.04H263.04c-71.68 0-126.08-54.4-126.08-126.08v-708.48c0-71.68 54.4-126.08 126.08-126.08h558.72c71.68 0 126.08 54.4 126.08 126.08V613.12L712.32 855.04z m-1.92-79.36l162.56-164.48-97.28-0.64c-36.48 0-64.64 16.64-64.64 56.32v108.8z m182.4-753.28c0-36.48-32-67.84-68.48-67.84H268.16c-36.48 0-76.16 33.92-76.16 70.4V726.4C192 762.88 229.12 800 264.96 800h391.04l-0.64-137.6c0-73.6 35.84-107.52 108.8-107.52h129.28v-532.48z m0 0M741.76 360.96000000000004H343.04c-17.92 0-27.52-14.72-27.52-28.8 0-14.72 9.6-28.8 27.52-28.8h398.72c17.92 0 27.52 14.72 27.52 28.8 0 14.72-9.6 28.8-27.52 28.8z m0 0"  horiz-adv-x="1024" />

    
    <glyph glyph-name="liebiao" unicode="&#58882;" d="M900.2-32.2H124.8c-14.8 0-26.8 12-26.8 26.8V770c0 14.8 12 26.8 26.8 26.8h775.4c14.8 0 26.8-12 26.8-26.8v-775.4c0-14.8-12-26.8-26.8-26.8z m-772.5 29.7h769.5V767H127.7v-769.5zM202.8 580.4h617.5v-29.7H202.8zM202.8 397.6h617.5v-29.7H202.8zM216.3 214.9h617.5v-29.7H216.3z"  horiz-adv-x="1024" />

    
    <glyph glyph-name="xia-copy" unicode="&#59191;" d="M984.344346 889.608154c-19.175539 0-38.351078-12.783693-38.351079-38.351079v-862.899264l-191.755392 204.539085c-12.783693 12.783693-38.351078 12.783693-51.134771 0-12.783693-12.783693-12.783693-38.351078 0-51.134771l255.673856-255.673856s19.175539-19.175539 44.742925-12.783693c6.391846 0 19.175539 12.783693 19.175539 19.175539V857.648922c0 19.175539-12.783693 31.959232-38.351078 31.959232z m0 0"  horiz-adv-x="1024" />

    
    <glyph glyph-name="shang" unicode="&#58886;" d="M39.003366-128c19.175539 0 38.351078 12.783693 38.351079 38.351078V773.250343L275.501683 575.103104c12.783693-12.783693 38.351078-12.783693 51.134771 0 12.783693 12.783693 12.783693 38.351078 0 51.134771l-255.673856 255.673856S51.787059 901.087271 26.219674 894.695424C19.827827 894.695424 7.044134 881.911731 7.044134 875.519885v-965.168807c0-25.567386 12.783693-38.351078 31.959232-38.351078z m0 0"  horiz-adv-x="1821" />

    
    <glyph glyph-name="wenjianjia1" unicode="&#58890;" d="M802.6 799.4H221.4c-29.7 0-53.9-23.2-53.9-51.8v-617.1c0-22.5 15.8-42.4 38.1-48.1l386-112.2c4.4-1.1 8.9-1.6 13.3-1.6 11.1 0 22 3.4 31.2 10l0.1 0.1c13 9.5 20.5 23.9 20.5 39.7v67.2h96.7c29.7 0 53.9 23.2 53.9 51.8V390.1l2.8 4c9.3 13.2 24.2 34.4 33.1 47.5 5.9 8.5 13.3 19.1 13.3 35.4V747.6c0 28.6-24.2 51.8-53.9 51.8zM598.8 626.1v-599.4L225.4 135.3V734.7l373.4-108.6z m204.4 117.1l-0.1-0.1c-0.1 0-0.1 0-0.1 0.1h0.2z m-184.4-64.3l-212.3 64.3 392.3 0.1-0.1-266.8-5.5-7.8c-9.3-13.3-22.4-32.1-29.2-42.4-5.7-8.7-14.4-21.7-14.4-36.5v-247.7h-92.7v489c-0.2 22.2-16 42.1-38.1 47.8z"  horiz-adv-x="1024" />

    
    <glyph glyph-name="yonghu" unicode="&#58891;" d="M517.76 389.76c-137.6 0-249.6 112-249.6 249.6s112 249.6 249.6 249.6 249.6-112 249.6-249.6-112-249.6-249.6-249.6z m0 426.88c-97.92 0-177.28-79.36-177.28-177.28 0-97.92 79.36-176.64 177.28-176.64 97.92 0 177.28 79.36 177.28 176.64-0.64 97.92-80 177.28-177.28 177.28z m0 0M746.24-128H289.28c-113.92 0-207.36 92.8-207.36 206.72 0 112.64 46.08 219.52 117.12 273.92 51.84 39.68 113.28 50.56 177.92 33.92 9.6-2.56 26.24-8.96 45.44-17.28 26.24-10.88 70.4-28.16 87.68-28.16 23.04 0 75.52 19.2 106.24 31.36 17.92 6.4 33.28 12.16 42.24 14.72 64.64 17.28 126.08 5.76 177.92-33.92 71.04-54.4 116.48-161.28 116.48-272.64 0-115.84-92.8-208.64-206.72-208.64zM396.8-55.67999999999995h349.44c74.24 0 134.4 60.16 134.4 134.4 0 89.6-35.2 176-88.32 216.96-33.28 25.6-72.32 33.28-114.56 21.76-7.68-1.92-20.48-7.04-35.2-12.16-53.12-19.84-99.2-36.48-132.48-36.48-29.44 0-67.84 14.72-115.2 33.92-15.36 6.4-28.8 11.52-36.48 14.08-42.24 11.52-81.92 4.48-115.2-21.12-53.12-40.32-88.32-127.36-88.32-215.04 0-75.52 60.16-135.68 134.4-135.68l107.52-0.64z m0 0"  horiz-adv-x="1024" />

    
    <glyph glyph-name="yiyuanjia" unicode="&#58894;" d="M959.36 534.4L661.76 832C622.08 871.68 569.6 894.08 512 894.08c-57.6 0-110.08-22.4-150.4-62.08L64.64 534.4C24.32 494.08 1.92 441.6 1.92 384s22.4-110.08 62.08-150.4L361.6-64c39.68-39.68 92.8-62.08 150.4-62.08s112 22.4 151.68 62.08l295.68 297.6c39.68 39.68 62.08 92.8 62.08 150.4 0.64 57.6-21.76 110.08-62.08 150.4z m-46.08-257.28l-297.6-297.6c-54.4-52.48-151.68-52.48-204.8 0L113.92 277.12c-32 26.88-44.8 62.08-44.8 102.4 0 39.68 17.28 74.88 44.8 102.4L409.6 778.88c26.88 32 62.08 44.8 102.4 44.8 39.68 0 74.88-14.08 102.4-44.8l298.88-297.6c32-26.88 44.8-62.08 44.8-102.4 0-39.68-17.92-74.88-44.8-101.76zM681.6 401.28H561.28V544c0 22.4-17.28 35.2-35.2 35.2-22.4 0-36.48-12.8-35.2-35.2v-142.08H348.8c-22.4 0-36.48-12.8-35.2-35.2 0-22.4 17.28-35.2 35.2-35.2h142.08V211.20000000000005c0-22.4 17.28-35.2 35.2-35.2 22.4 0 35.2 17.28 35.2 35.2V331.52h119.68c22.4 0 35.2 17.28 35.2 35.2 0.64 21.76-17.28 34.56-34.56 34.56z"  horiz-adv-x="1035" />

    
    <glyph glyph-name="xian" unicode="&#58906;" d="M417.6 392h187.2v-16H417.6z"  horiz-adv-x="1024" />

    
    <glyph glyph-name="iconfont-yuyueguahao" unicode="&#58916;" d="M460.1 95.6h-286c-16.5 0-30 13.5-30 30.1V456.3h696.3V640.6c0 54-43.9 97.9-97.8 97.9h-62.9V792H612v-53.6H304.8V792H237v-53.6h-62.8c-54 0-97.9-43.9-97.9-97.9v-514.9c0-53.9 43.9-97.8 97.9-97.8h286c18.7 0 34 15.1 34 33.8s-15.4 34-34.1 34zM304.8 590.2v80.3H612v-80.3h67.8v80.3h62.9c16.5 0 30-13.5 30-30v-116.4H144.1V640.6c0 16.5 13.5 30 30 30H237v-80.3h67.8zM210.2 390.2H412v-67.8H210.2zM210.2 229.5H412v-67.8H210.2zM760.1 309.9h-67.8v-80.6h-79.5v-67.8h80.3v-80.3H761v80.5h79.5v67.8h-80.4zM882.7 352.2C840.9 394 785.3 417 726.2 417c-59.2 0-114.7-23-156.5-64.8-41.9-41.9-64.9-97.4-64.9-156.5 0-59.2 23.1-114.7 64.9-156.5 41.9-41.9 97.4-64.8 156.5-64.8 59.2 0 114.7 23 156.5 64.8 41.9 41.8 64.9 97.4 64.9 156.5 0 59.1-23 114.7-64.9 156.5z m2.3-156.6c0-84.6-74.2-158.8-158.8-158.8S567.4 111 567.4 195.6s74.3 158.8 158.8 158.8S885 280.2 885 195.6z"  horiz-adv-x="1024" />

    
    <glyph glyph-name="nvtouxiang1" unicode="&#58957;" d="M0 384c0-282.24 228.48-510.72 510.72-510.72 282.24 0 510.72 228.48 510.72 510.72C1021.44 666.24 792.96 894.72 510.72 894.72 229.12 894.72 0 666.24 0 384z m0 0M510.08 228.48c39.68 0 155.52-23.04 206.08-54.4 51.84-32.64 126.08-91.52 163.84-135.68 9.6-11.52-168.32-160-374.4-160s-375.68 158.08-366.72 169.6c39.04 51.84 115.84 103.04 164.48 126.72 50.56 23.68 155.52 53.76 206.72 53.76z m0 0M451.84 268.8v-114.56h114.56V291.2H451.84V268.8z m0 0M453.12 222.08l57.6-67.84 55.04 67.84s37.76-5.76 44.8-9.6c12.16-6.4-100.48-131.2-100.48-131.2S394.24 208 403.2 210.56c5.12 1.28 49.92 11.52 49.92 11.52z m187.52-181.76H755.2v-13.44h-114.56v13.44z m0 0M501.12 54.4c0-6.4 5.12-11.52 11.52-11.52s11.52 5.12 11.52 11.52-5.12 11.52-11.52 11.52-11.52-5.12-11.52-11.52z m0 0M501.12-1.92c0-6.4 5.12-11.52 11.52-11.52s11.52 5.12 11.52 11.52-5.12 11.52-11.52 11.52-11.52-5.12-11.52-11.52z m0 0M501.12-57.6c0-6.4 5.12-11.52 11.52-11.52s11.52 5.12 11.52 11.52-5.12 11.52-11.52 11.52-11.52-5.12-11.52-11.52z m0 0M570.24 284.16l-118.4-62.08V316.16l118.4-32z m0 0M510.72 849.28c62.72 0 123.52-12.16 181.12-36.48 55.68-23.68 104.96-56.96 147.84-99.84 42.88-42.88 76.16-92.16 99.84-147.84 24.32-57.6 36.48-118.4 36.48-181.12s-12.16-123.52-36.48-181.12c-23.68-55.68-56.96-104.96-99.84-147.84-42.88-42.88-92.16-76.16-147.84-99.84-57.6-24.32-118.4-36.48-181.12-36.48s-123.52 12.16-181.12 36.48c-55.68 23.68-104.96 56.96-147.84 99.84-42.88 42.88-76.16 92.16-99.84 147.84C57.6 260.48 45.44 321.28 45.44 384S57.6 507.52 81.92 565.12c23.68 55.68 56.96 104.96 99.84 147.84 42.88 42.88 92.16 76.16 147.84 99.84 57.6 24.32 118.4 36.48 181.12 36.48m0 45.44C229.12 894.72 0 666.24 0 384c0-282.24 228.48-510.72 510.72-510.72 282.24 0 510.72 228.48 510.72 510.72C1021.44 666.24 792.96 894.72 510.72 894.72z m0 0M340.48 356.48v-72.96l94.08 14.08-20.48 113.92-66.56 45.44zM681.6 356.48v-72.96l-94.72 14.08 20.48 113.92 67.2 45.44zM686.72 519.04c0 42.88-2.56 87.68-30.08 114.56-33.92 33.92-92.8 42.24-144.64 42.24-54.4 0-118.4-12.16-152.32-49.28-24.32-26.88-23.68-67.84-22.4-108.16-15.36-0.64-24.32-20.48-19.84-35.2 5.12-18.56 19.84-54.4 26.88-58.88h0.64c8.32-37.76 24.32-72.96 52.48-94.72 32-24.96 71.68-64.64 115.2-64.64 46.08 0 88.32 41.6 120.96 69.12 25.6 21.76 39.68 55.04 47.36 90.88h0.64c7.04 4.48 21.76 40.32 26.88 58.88 3.84 14.72-5.76 35.2-21.76 35.2z m0 0M512 676.48c-54.4 0-118.4-12.16-152.32-49.28-24.32-26.88-23.68-67.84-22.4-108.16-15.36-0.64-24.32-20.48-19.84-35.2 5.12-18.56 19.84-54.4 26.88-58.88h0.64c8.32-37.76 24.32-72.96 52.48-94.72 32-24.96 71.68-64.64 115.2-64.64L512 676.48z m0 0M458.24 496c10.88 17.92 7.68 36.48 7.68 36.48-19.84-9.6-85.76-40.32-75.52-30.72 5.12 5.12 8.96 16 16 25.6 9.6 13.44-34.56-23.68-42.88-37.12-5.76-9.6-2.56-28.16-12.8-58.24-1.28-5.12-8.96 49.92-12.16 74.88-2.56 16.64-5.76 5.12-5.76 35.2 0 25.6 10.88 72.32 32 90.24 25.6 21.12 62.72 44.16 147.84 44.16 110.72 0 113.28-17.28 144.64-42.24 24.96-19.84 35.2-95.36 30.08-114.56-3.84-14.72-8.96-80-10.24-70.4-0.64 4.48-6.4 25.6-6.4 36.48 0 10.88-23.04 21.12-38.4 32.64-23.04 17.28-32 26.24-42.24 39.04-10.88 11.52-131.84-61.44-131.84-61.44z m0 0"  horiz-adv-x="1024" />

    
    <glyph glyph-name="nantouxiang1" unicode="&#58959;" d="M6.4 384.64c0-281.6 227.84-509.44 509.44-509.44 281.6 0 509.44 227.84 509.44 509.44 0 281.6-227.84 509.44-509.44 509.44C234.24 894.08 6.4 665.6 6.4 384.64z m0 0M515.2 229.12c39.68 0 155.52-23.04 205.44-54.4 51.84-32.64 125.44-91.52 163.2-135.04 9.6-11.52-168.32-160-373.76-160-205.44 0-375.04 157.44-366.08 168.96 39.04 51.2 115.2 102.4 163.84 126.08 51.2 24.32 156.16 54.4 207.36 54.4z m0 0M456.96 269.44v-113.92h113.92V291.84H456.96v-22.4z m0 0M458.24 222.72l57.6-67.84 55.04 67.84s37.76-5.76 44.8-9.6c12.16-6.4-99.84-130.56-99.84-130.56S399.36 208.64 408.32 211.2c5.12 1.28 49.92 11.52 49.92 11.52z m186.88-181.12h113.92v-13.44h-113.92v13.44z m0 0M506.24 55.04c0-6.4 5.12-11.52 11.52-11.52s11.52 5.12 11.52 11.52-5.12 11.52-11.52 11.52-11.52-5.12-11.52-11.52z m0 0M506.24-0.64c0-6.4 5.12-11.52 11.52-11.52s11.52 5.12 11.52 11.52-5.12 11.52-11.52 11.52-11.52-5.12-11.52-11.52z m0 0M506.24-56.32c0-6.4 5.12-11.52 11.52-11.52s11.52 5.12 11.52 11.52-5.12 11.52-11.52 11.52-11.52-5.12-11.52-11.52z m0 0M574.72 284.8l-117.76-62.08V316.8l117.76-32z m0 0M691.2 519.04c0 42.88-2.56 87.04-30.08 114.56-33.92 33.92-92.8 42.24-144 42.24-54.4 0-117.76-12.16-152.32-49.28-24.32-26.24-23.68-67.2-22.4-107.52-15.36-0.64-24.32-20.48-19.84-35.2 5.12-18.56 19.84-54.4 26.88-58.88h0.64c8.32-37.76 24.32-72.96 52.48-94.72 32-24.96 71.68-64.64 115.2-64.64 46.08 0 88.32 41.6 120.32 69.12 25.6 21.76 39.68 54.4 47.36 90.24h0.64c7.04 4.48 21.76 40.32 26.88 58.88 3.84 14.72-5.76 35.2-21.76 35.2z m0 0M517.12 675.84c-54.4 0-117.76-12.16-152.32-49.28-24.32-26.24-23.68-67.2-22.4-107.52-15.36-0.64-24.32-20.48-19.84-35.2 5.12-18.56 19.84-54.4 26.88-58.88h0.64c8.32-37.76 24.32-72.96 52.48-94.72 32-24.96 71.68-64.64 115.2-64.64l-0.64 410.24z m0 0M463.36 496c10.88 17.92 7.68 35.84 7.68 35.84-19.84-9.6-85.12-40.32-75.52-30.72 5.12 4.48 8.96 16 16 25.6 9.6 12.8-34.56-23.68-42.88-37.12-5.76-9.6-2.56-27.52-12.8-57.6-1.28-5.12-8.96 49.92-12.16 74.24-2.56 16.64-5.76 5.12-5.76 35.2 0 25.6 10.88 72.32 32 90.24 25.6 21.12 62.72 44.16 147.2 44.16 110.72 0 112.64-17.28 144-42.24 24.96-19.84 35.2-94.72 30.08-114.56-3.84-14.72-8.96-80-10.24-70.4-0.64 4.48-6.4 25.6-6.4 36.48 0 10.88-23.04 21.12-38.4 32-23.04 17.28-32 26.24-42.24 39.04-10.24 12.8-130.56-60.16-130.56-60.16z m0 0M515.84 848.64c62.72 0 123.52-12.16 180.48-36.48 55.04-23.68 104.96-56.96 147.2-99.2 42.88-42.88 76.16-92.16 99.2-147.2 24.32-56.96 36.48-117.76 36.48-180.48s-12.16-123.52-36.48-180.48c-23.68-55.04-56.96-104.96-99.2-147.2-42.88-42.88-92.16-76.16-147.2-99.2-56.96-24.32-117.76-36.48-180.48-36.48s-123.52 12.16-180.48 36.48c-55.04 23.68-104.96 56.96-147.2 99.2-42.88 42.88-76.16 92.16-99.2 147.2-24.96 56.32-37.12 117.12-37.12 179.84s12.16 123.52 36.48 180.48c23.68 55.04 56.96 104.96 99.2 147.2 42.88 42.88 92.16 76.16 147.2 99.2 57.6 24.32 118.4 37.12 181.12 37.12m0 45.44C234.24 894.08 6.4 665.6 6.4 384.64c0-281.6 227.84-509.44 509.44-509.44 281.6 0 509.44 227.84 509.44 509.44C1025.28 665.6 796.8 894.08 515.84 894.08z m0 0"  horiz-adv-x="1026" />

    
    <glyph glyph-name="wumingshi" unicode="&#58963;" d="M0.64 384.64c0-281.6 228.48-510.08 510.08-510.08s510.08 228.48 510.08 510.08S792.32 894.72 510.72 894.72 0.64 666.24 0.64 384.64zM510.72 849.28c62.72 0 123.52-12.16 180.48-36.48 55.04-23.68 104.96-56.96 147.84-99.2 42.88-42.88 76.16-92.16 99.2-147.84 24.32-56.96 36.48-117.76 36.48-180.48s-12.16-123.52-36.48-180.48c-23.68-55.04-56.96-104.96-99.2-147.84-42.88-42.88-92.16-76.16-147.84-99.2-56.96-24.32-117.76-36.48-180.48-36.48s-123.52 12.16-180.48 36.48c-55.04 23.68-104.96 56.96-147.84 99.2-42.88 42.88-76.16 92.16-99.2 147.84-24.32 56.96-36.48 117.76-36.48 180.48S58.88 508.8 83.2 565.76c23.68 55.04 56.96 104.96 99.2 147.84 42.88 42.88 92.16 76.16 147.84 99.2C387.2 837.12 448 849.28 510.72 849.28m0 45.44C229.12 894.72 0.64 666.24 0.64 384.64s228.48-510.08 510.08-510.08 510.08 228.48 510.08 510.08C1020.16 666.24 792.32 894.72 510.72 894.72z m0 0M415.36 590.08c0-6.4 8.32-13.44 24.32-21.76 10.24-12.16 11.52-26.88 3.2-42.88-10.24-12.16-23.68-16.64-39.68-12.16-18.56 1.92-27.52 13.44-27.52 33.92 6.4 73.6 51.84 113.28 138.24 119.68 87.68-8.32 131.84-44.8 131.84-110.08-3.84-18.56-19.2-44.16-46.08-76.8-56.96-65.28-85.76-122.88-85.76-171.52v-36.48h-8.96c0 3.84-1.28 8.96-3.2 15.36-1.92 14.08-3.2 26.24-3.2 36.48 0 39.04 7.04 74.88 21.76 107.52 6.4 12.16 17.28 29.44 33.92 51.84 32.64 36.48 46.72 69.76 42.88 97.92-8.32 44.8-34.56 68.48-80 70.4-32.64 0-58.24-8.32-76.8-24.32-10.24-10.24-18.56-21.76-24.32-33.92v-3.2z m131.84-447.36c-1.92-24.32-16.64-37.76-42.88-39.68-26.88 1.92-40.96 15.36-42.88 39.68 1.92 24.32 16.64 37.76 42.88 39.68 26.88-1.92 40.96-15.36 42.88-39.68z"  horiz-adv-x="1024" />

    
    <glyph glyph-name="logo1" unicode="&#58937;" d="M908.8 171.52c-10.88-8.96-24.96-15.36-41.6-20.48-23.68-7.04-46.08-7.68-66.56-1.92-2.56 0.64-5.12 1.28-7.68 2.56-3.84 1.92-7.68 3.84-10.88 6.4-4.48 3.84-7.68 8.32-8.96 14.72v0.64c0 1.28-0.64 2.56-0.64 3.84v3.84c0.64 7.68 3.84 15.36 8.32 24.32-0.64-1.28-1.92-1.92-2.56-3.2-11.52-14.08-17.28-26.88-17.28-38.4v-2.56c0.64-3.84 1.28-7.04 3.2-10.24l0.64-1.28c5.76-9.6 18.56-13.44 19.84-14.08 22.4-5.76 48-3.2 76.8 7.68 19.2 7.04 35.2 16.64 48.64 28.16 2.56 1.92 4.48 3.84 6.4 6.4 4.48 4.48 7.68 8.96 8.32 12.8v0.64c-1.28-1.28-1.92-3.2-3.2-4.48-2.56-5.76-7.68-10.88-12.8-15.36zM807.68-44.8c-8.32 0-17.92 1.28-23.68 2.56-136.96 25.6-238.72 179.2-241.28 359.04 3.2 63.36 17.92 122.88 44.16 172.16l0.64 0.64c-46.72-37.12-80-88.96-92.8-148.48 0 0-3.84-15.36-4.48-19.2-2.56-15.36-3.2-30.72-3.84-46.72-0.64 0.64-0.64 1.92-1.28 2.56v-1.28c-17.28 35.2-44.8 63.36-83.84 84.48-3.2 1.92-6.4 3.2-9.6 4.48 22.4-19.2 40.32-41.6 52.48-65.92v-0.64c1.92-3.84 3.84-8.32 5.76-12.8 1.92-5.12 3.84-10.24 5.12-15.36 0-0.64 0.64-1.92 0.64-2.56 6.4-23.04 7.04-46.72 3.2-71.04-2.56-16-6.4-31.36-12.16-46.08-3.2-8.96-7.04-17.28-10.88-25.6-33.28-65.28-79.36-112.64-136.32-140.8-3.2-1.28-5.76-2.56-8.96-3.84-0.64-0.64-1.28-0.64-2.56-0.64-11.52-5.12-23.04-8.96-34.56-11.52-3.2-0.64-7.04-1.92-10.24-2.56-1.28 0-2.56-0.64-3.2-0.64-19.84-4.48-40.96-6.4-62.08-5.76 1.28-0.64 2.56-1.28 4.48-1.28 43.52-10.24 88.96-7.04 138.24 10.24 73.6 25.6 128.64 74.24 165.12 144.64 1.28 2.56 8.96 18.56 14.08 40.96 0-0.64 0-0.64 0.64-1.28 0.64 1.92 0 3.84 0.64 5.76 36.48-129.92 137.6-224 258.56-224 46.72 0 90.88 14.08 129.28 39.04v0.64c-24.96-12.16-52.48-18.56-81.28-19.2zM967.68 574.72c-33.92 42.88-83.2 72.96-136.96 86.4-30.72 60.16-80.64 111.36-143.36 140.16-68.48 32-148.48 39.68-221.44 17.28-68.48-20.48-128-65.28-168.32-123.52-7.68-0.64-14.72-1.28-22.4-2.56-21.12-4.48-40.96-12.16-58.88-23.68-29.44-18.56-51.2-46.72-65.92-77.44C53.12 557.44-10.88 452.48 6.4 355.2c15.36-104.32 117.12-179.2 209.92-165.12-45.44 5.76-87.04 27.52-115.2 58.24-29.44 31.36-43.52 72.32-44.8 111.36C51.2 440.32 115.2 512 186.88 520.32l19.2 1.92 10.24 23.04c9.6 21.76 25.6 39.04 45.44 50.56 28.16 17.28 78.72 21.76 88.96 20.48 1.28 0 2.56 0.64 2.56 0.64l12.8 17.92c30.72 44.8 76.16 79.36 127.36 92.8 51.2 14.08 108.16 11.52 156.8-10.88 48.64-22.4 90.24-61.44 115.2-110.08l10.88-21.76 21.12-1.92c86.4-8.96 168.96-82.56 173.44-179.2 8.96-94.08-55.04-196.48-160.64-226.56 108.8 3.2 213.76 104.96 215.04 227.2 1.92 60.8-18.56 122.24-57.6 170.24z"  horiz-adv-x="1025" />

    
    <glyph glyph-name="mima1" unicode="&#58980;" d="M260.413793-123.586207C203.034483-123.586207 158.896552-75.034483 158.896552-17.655172V428.137931c0 52.965517 35.310345 97.103448 83.862069 105.931035V609.103448C242.758621 763.586207 361.931034 891.586207 512 891.586207c150.068966 0 269.241379-128 269.241379-282.482759 0-22.068966-17.655172-39.724138-35.310345-39.724138s-35.310345 17.655172-35.310344 39.724138c0 114.758621-88.275862 207.448276-198.62069 207.448276S313.37931 723.862069 313.37931 609.103448v-75.034482h450.206897c52.965517 0 101.517241-48.551724 101.517241-105.931035v-445.793103c0-57.37931-44.137931-105.931034-101.517241-105.931035H260.413793z m0 582.62069c-17.655172 0-26.482759-13.241379-26.482759-30.896552v-445.793103c0-17.655172 13.241379-30.896552 26.482759-30.896552h507.586207c17.655172 0 26.482759 13.241379 26.482759 30.896552V428.137931c0 17.655172-13.241379 30.896552-26.482759 30.896552H260.413793z m110.344828-132.413793v75.034482h282.482758v-75.034482H370.758621z"  horiz-adv-x="1024" />

    
    <glyph glyph-name="yonghu-" unicode="&#58982;" d="M295.724138-123.586207C242.758621-105.931034 198.62069-66.206897 172.137931-13.241379 158.896552 13.241379 158.896552 22.068966 158.896552 123.586207c0 105.931034 0 110.344828 17.655172 145.655172 17.655172 35.310345 61.793103 79.448276 88.275862 92.689655 8.827586 4.413793 17.655172 8.827586 22.068966 8.827587 0 0-8.827586 22.068966-22.068966 48.551724-57.37931 105.931034-57.37931 207.448276-4.413793 313.37931 26.482759 61.793103 79.448276 110.344828 141.241379 141.241379C445.793103 896 445.793103 896 512 896s66.206897 0 114.758621-22.068966c61.793103-30.896552 110.344828-79.448276 141.241379-141.241379 48.551724-105.931034 48.551724-207.448276-4.413793-313.37931-13.241379-26.482759-22.068966-48.551724-22.068966-48.551724s8.827586-4.413793 22.068966-8.827587c26.482759-13.241379 70.62069-57.37931 88.275862-92.689655 13.241379-30.896552 13.241379-35.310345 13.241379-145.655172 0-105.931034 0-110.344828-13.241379-136.827586-17.655172-39.724138-57.37931-79.448276-92.689655-97.103449l-26.482759-13.241379H520.827586c-114.758621-4.413793-216.275862 0-225.103448 0z m423.724138 75.034483c35.310345 17.655172 61.793103 48.551724 79.448276 83.862069 4.413793 13.241379 8.827586 44.137931 8.827586 97.103448 0 66.206897 0 79.448276-13.241379 105.931035-13.241379 30.896552-52.965517 70.62069-83.862069 79.448275-17.655172 4.413793-22.068966 4.413793-66.206897-17.655172-30.896552-13.241379-61.793103-26.482759-88.275862-30.896552-57.37931-8.827586-110.344828 0-172.137931 30.896552-39.724138 22.068966-48.551724 22.068966-66.206897 17.655172-30.896552-8.827586-66.206897-44.137931-83.862069-79.448275-13.241379-26.482759-13.241379-39.724138-13.241379-105.931035 0-52.965517 4.413793-79.448276 8.827586-92.689655 17.655172-57.37931 61.793103-92.689655 114.758621-101.517241 13.241379-4.413793 97.103448-4.413793 180.965517-4.413794h158.896552l35.310345 17.655173z m-123.586207 388.413793c97.103448 44.137931 158.896552 172.137931 136.827586 286.896552-13.241379 88.275862-66.206897 158.896552-136.827586 194.206896-30.896552 13.241379-44.137931 13.241379-83.862069 13.24138-39.724138 0-52.965517-4.413793-83.862069-17.655173-97.103448-44.137931-154.482759-163.310345-141.241379-278.068965 13.241379-101.517241 88.275862-189.793103 172.137931-211.862069 35.310345-8.827586 105.931034 0 136.827586 13.241379z m0 0"  horiz-adv-x="1024" />

    
    <glyph glyph-name="zhongnian" unicode="&#58953;" d="M969.937888 56.447205c-12.720497 25.440994-38.161491 50.881988-63.602484 69.962733-31.801242 19.080745-76.322981 38.161491-127.204969 44.521739-25.440994 6.360248-50.881988 6.360248-69.962733 12.720497-44.521739 12.720497-57.242236 19.080745-57.242236 25.440994v38.16149c6.360248 63.602484 38.161491 108.124224 69.962733 139.925466 12.720497 12.720497 19.080745 19.080745 25.440994 31.801242 25.440994 44.521739 31.801242 95.403727 31.801242 95.403727v19.080746c-6.360248 12.720497-6.360248 19.080745-12.720497 25.440993-6.360248 19.080745 0 38.161491 0 50.881988 0 25.440994 0 63.602484-6.360249 101.763975 0 6.360248 0 12.720497-6.360248 25.440994-6.360248 25.440994-19.080745 50.881988-31.801242 69.962733-6.360248 6.360248-76.322981 76.322981-254.409938 89.043478H384.795031c-6.360248 0-12.720497 0-19.080745-6.360248-31.801242-6.360248-38.161491-25.440994-38.161491-38.161491v-31.801242s-6.360248 0-6.360248-6.360249c0 0-50.881988-44.521739-57.242236-101.763975-6.360248-44.521739-6.360248-108.124224 0-146.285714-6.360248-12.720497-19.080745-25.440994-19.080746-50.881988 0 0 0-57.242236 38.161491-101.763975 6.360248-12.720497 19.080745-19.080745 25.440994-31.801242 25.440994-31.801242 63.602484-69.962733 69.962733-139.925466v-38.161491s-19.080745-12.720497-57.242236-25.440994c-25.440994-6.360248-57.242236-12.720497-69.962733-12.720496-50.881988-6.360248-89.043478-25.440994-127.204969-44.52174-25.440994-19.080745-50.881988-38.161491-63.602485-69.962732-25.440994-44.521739-25.440994-82.68323-25.440994-89.043479v-19.080745c0-19.080745 19.080745-38.161491 38.161491-38.161491h521.540373c19.080745 0 63.602484-6.360248 89.043478-25.440994 6.360248-6.360248 12.720497-6.360248 19.080745-6.360248l12.720497 6.360248c6.360248 0 12.720497 6.360248 12.720497 12.720497 6.360248 6.360248 6.360248 19.080745 6.360249 25.440994 0 6.360248-6.360248 19.080745-12.720497 25.440994-50.881988 31.801242-127.204969 38.161491-133.565218 38.161491H104.944099c0 12.720497 6.360248 25.440994 12.720497 44.521739 12.720497 19.080745 25.440994 31.801242 44.521739 44.521739 25.440994 12.720497 57.242236 25.440994 95.403727 31.801242 6.360248 0 44.521739 6.360248 76.322981 12.720497 63.602484 19.080745 95.403727 38.161491 108.124224 63.602484 6.360248 19.080745 12.720497 38.161491 6.360249 76.322982-6.360248 89.043478-50.881988 139.925466-89.043479 178.086956-6.360248 6.360248-12.720497 19.080745-19.080745 25.440994-12.720497 19.080745-19.080745 44.521739-19.080745 57.242236 12.720497 6.360248 19.080745 19.080745 19.080745 31.801242v25.440994c-6.360248 31.801242-6.360248 89.043478 0 127.204969V705.192547c0 25.440994 31.801242 57.242236 31.801242 57.242236 0 6.360248 12.720497 12.720497 19.080746 31.801242 6.360248 6.360248 6.360248 12.720497 6.360248 19.080745v12.720497h57.242236c44.521739-6.360248 114.484472-12.720497 165.36646-38.161491 25.440994-12.720497 38.161491-25.440994 44.521739-25.440993 6.360248-12.720497 12.720497-25.440994 19.080745-44.52174V705.192547c6.360248-25.440994 6.360248-50.881988 6.360249-89.043479 0-12.720497 0-25.440994-6.360249-44.521739 0-19.080745 0-38.161491 12.720497-50.881987l6.360248-6.360249c0-6.360248-6.360248-38.161491-19.080745-63.602484-6.360248-6.360248-12.720497-19.080745-19.080745-25.440994-38.161491-31.801242-82.68323-82.68323-89.043479-171.726708-6.360248-38.161491 0-57.242236 6.360249-69.962733 12.720497-25.440994 44.521739-50.881988 108.124224-63.602485 38.161491-12.720497 76.322981-12.720497 76.322981-12.720496 38.161491-6.360248 69.962733-19.080745 95.403727-38.161491 19.080745-12.720497 31.801242-25.440994 44.521739-44.521739s12.720497-31.801242 12.720497-38.161491h-146.285715c-19.080745 0-38.161491-19.080745-38.16149-38.161491s19.080745-38.161491 38.16149-38.16149H957.217391c19.080745 0 38.161491 19.080745 38.161491 38.16149v19.080746c0 6.360248 0 44.521739-25.440994 89.043478z m-699.627329 502.459627z"  horiz-adv-x="1024" />

    
    <glyph glyph-name="nanyisheng" unicode="&#58955;" d="M6.4 381.866667C6.4 102.4 232.533333-123.733333 512-123.733333s505.6 226.133333 505.6 505.6S793.6 887.466667 514.133333 887.466667C234.666667 887.466667 6.4 661.333333 6.4 381.866667z m0 0M76.8 381.866667c0-241.066667 196.266667-435.2 435.2-435.2 241.066667 0 435.2 196.266667 435.2 435.2S753.066667 817.066667 514.133333 817.066667c-241.066667 0-437.333333-194.133333-437.333333-435.2z m0 0M512 366.933333c29.866667-17.066667 76.8 108.8-2.133333 102.4-81.066667-6.4 2.133333-102.4 2.133333-102.4z m0 0M492.8 72.533333c0-8.533333 4.266667-14.933333 10.666667-19.2 6.4-4.266667 14.933333-4.266667 21.333333 0 6.4 4.266667 10.666667 10.666667 10.666667 19.2 0 12.8-8.533333 21.333333-21.333334 21.333334s-21.333333-8.533333-21.333333-21.333334z m0 0M337.066667 366.933333c-29.866667-17.066667-78.933333 106.666667 0 102.4 78.933333-4.266667 0-102.4 0-102.4z m347.733333 0c29.866667-17.066667 78.933333 106.666667 0 102.4-78.933333-4.266667 0-102.4 0-102.4z m0 0M704 433.066667c0-104.533333-85.333333-217.6-189.866667-217.6s-189.866667 113.066667-189.866666 217.6c0 104.533333 85.333333 189.866667 189.866666 189.866666s189.866667-85.333333 189.866667-189.866666z m-14.933333-339.2c0-46.933333-78.933333-83.2-174.933334-83.2-96 0-174.933333 38.4-174.933333 83.2 0 46.933333 78.933333 59.733333 174.933333 59.733333 96 0 174.933333-14.933333 174.933334-59.733333z m0 0M759.466667 21.333333c-27.733333-19.2-57.6-34.133333-89.6-46.933333-8.533333-4.266667-17.066667-6.4-25.6-8.533333-27.733333-8.533333-55.466667-14.933333-85.333334-17.066667-12.8-2.133333-27.733333-2.133333-40.533333-2.133333H512h-2.133333c-12.8 0-27.733333 0-40.533334 2.133333-27.733333 2.133333-55.466667 8.533333-81.066666 14.933333-8.533333 2.133333-14.933333 4.266667-23.466667 8.533334-4.266667 2.133333-8.533333 4.266667-12.8 4.266666-2.133333 0-2.133333 0-4.266667 2.133334-10.666667 4.266667-19.2 8.533333-29.866666 12.8-2.133333 0-2.133333 2.133333-4.266667 2.133333-17.066667 8.533333-32 17.066667-46.933333 27.733333 14.933333 32 32 59.733333 55.466666 78.933334 8.533333 8.533333 19.2 14.933333 27.733334 23.466666 4.266667 2.133333 6.4 4.266667 10.666666 6.4 2.133333 2.133333 6.4 4.266667 8.533334 4.266667l12.8 6.4s2.133333 0 2.133333 2.133333c4.266667 2.133333 10.666667 4.266667 14.933333 6.4h6.4c2.133333 0 4.266667 2.133333 6.4 2.133334 2.133333 0 4.266667 2.133333 6.4 2.133333v-2.133333s0-2.133333 2.133334-4.266667v-2.133333c0-2.133333 2.133333-4.266667 4.266666-8.533334l12.8-19.2c2.133333-2.133333 2.133333-4.266667 4.266667-6.4l6.4-6.4c2.133333-2.133333 0 0 0 0 2.133333-2.133333 4.266667-4.266667 6.4-8.533333l4.266667-4.266667 4.266666-4.266666s2.133333-2.133333 4.266667-2.133334c2.133333-2.133333 4.266667-2.133333 4.266667-4.266666 2.133333-2.133333 2.133333-2.133333 4.266666-2.133334 4.266667-4.266667 10.666667-6.4 14.933334-8.533333l19.2-6.4h4.266666c6.4 0 12.8 2.133333 19.2 4.266667 6.4 2.133333 10.666667 6.4 17.066667 10.666666 2.133333 2.133333 4.266667 2.133333 6.4 4.266667l6.4 6.4c2.133333 0 2.133333 2.133333 4.266667 4.266667s4.266667 2.133333 4.266666 4.266666l6.4 6.4 4.266667 4.266667 4.266667 4.266667c4.266667 4.266667 8.533333 10.666667 12.8 17.066666 4.266667 6.4 6.4 10.666667 8.533333 14.933334v2.133333c0 2.133333 2.133333 4.266667 2.133333 4.266667 4.266667-2.133333 8.533333-2.133333 14.933334-4.266667 2.133333 0 2.133333 0 4.266666-2.133333 4.266667-2.133333 8.533333-4.266667 12.8-4.266667 6.4-2.133333 10.666667-4.266667 17.066667-8.533333 2.133333-2.133333 6.4-2.133333 8.533333-4.266667 36.266667-21.333333 70.4-57.6 91.733334-106.666667z m0 0M452.266667 302.933333h121.6v-177.066666h-121.6zM608 132.266667l-8.533333-34.133334-2.133334-10.666666v-2.133334l-2.133333-4.266666-6.4-25.6-12.8-40.533334-19.2-68.266666c-12.8-2.133333-27.733333-2.133333-40.533333-2.133334H512h-2.133333c-12.8 0-27.733333 0-40.533334 2.133334-6.4 21.333333-10.666667 44.8-17.066666 68.266666-4.266667 12.8-6.4 27.733333-10.666667 40.533334-2.133333 6.4-2.133333 10.666667-4.266667 14.933333 0 4.266667-2.133333 8.533333-2.133333 10.666667 0 2.133333 0 2.133333-2.133333 4.266666-2.133333 6.4-4.266667 12.8-4.266667 19.2-2.133333 8.533333-4.266667 17.066667-6.4 23.466667v4.266667c0 4.266667-2.133333 4.266667-2.133333 6.4h6.4l25.6-2.133334 55.466666-4.266666H608z m0 0M509.866667-53.333333c-12.8 0-27.733333 0-40.533334 2.133333-27.733333 2.133333-55.466667 8.533333-81.066666 14.933333-8.533333 2.133333-14.933333 4.266667-23.466667 8.533334-4.266667 2.133333-6.4 6.4-10.666667 8.533333-2.133333 0-2.133333 2.133333-4.266666 2.133333l-2.133334 2.133334-2.133333 2.133333c-6.4 6.4-14.933333 10.666667-21.333333 14.933333-2.133333 0-2.133333 2.133333-4.266667 2.133334s-2.133333 2.133333-4.266667 2.133333h-2.133333l2.133333 2.133333c2.133333 2.133333 4.266667 2.133333 6.4 4.266667 2.133333 2.133333 4.266667 4.266667 6.4 4.266667 12.8 10.666667 23.466667 19.2 34.133334 27.733333 4.266667 2.133333 6.4 6.4 10.666666 8.533333 4.266667 4.266667 8.533333 6.4 10.666667 10.666667l8.533333 8.533333c2.133333 2.133333 2.133333 2.133333 4.266667 2.133334s2.133333 0 4.266667-2.133334c12.8-4.266667 23.466667-12.8 32-21.333333 0 0 2.133333 0 2.133333-2.133333 14.933333-12.8 27.733333-27.733333 38.4-44.8 19.2-12.8 29.866667-36.266667 36.266667-57.6z m0 0M484.266667 10.666667c12.8-23.466667 23.466667-46.933333 27.733333-66.133334h-2.133333c-12.8 0-27.733333 0-40.533334 2.133334-27.733333 2.133333-55.466667 8.533333-81.066666 14.933333-8.533333 8.533333-17.066667 17.066667-25.6 23.466667 0 0-2.133333 2.133333-4.266667 2.133333s-2.133333 2.133333-4.266667 2.133333-2.133333 2.133333-4.266666 2.133334c-6.4 6.4-14.933333 10.666667-21.333334 14.933333-2.133333 0-2.133333 2.133333-4.266666 2.133333-2.133333 2.133333-4.266667 2.133333-6.4 4.266667 6.4 4.266667 12.8 8.533333 17.066666 12.8l25.6 19.2 12.8 12.8c4.266667 2.133333 6.4 6.4 10.666667 8.533333l12.8 12.8s2.133333 4.266667 4.266667 4.266667l2.133333 2.133333h10.666667c2.133333 0 2.133333 2.133333 4.266666 4.266667s4.266667 6.4 6.4 10.666667c2.133333 4.266667 4.266667 8.533333 6.4 10.666666l2.133334 2.133334s2.133333 0 2.133333 2.133333h4.266667v-8.533333c2.133333-8.533333 4.266667-14.933333 6.4-23.466667 0-2.133333 0-2.133333 2.133333-4.266667v-2.133333c0-2.133333 0-2.133333 2.133333-4.266667 12.8-17.066667 23.466667-40.533333 34.133334-61.866666z m0 0M467.2 100.266667c-21.333333-14.933333-2.133333-8.533333-19.2-25.6-12.8 25.6-87.466667 10.666667-108.8 27.733333 85.333333 93.866667 59.733333 19.2 128-2.133333z m0 0M465.066667 104.533333c-21.333333-14.933333-2.133333-8.533333-19.2-25.6-12.8 25.6-87.466667 10.666667-108.8 27.733334 85.333333 93.866667 59.733333 19.2 128-2.133334z m0 0M708.266667 2.133333c-12.8-8.533333-25.6-17.066667-38.4-27.733333-8.533333-4.266667-17.066667-6.4-25.6-8.533333-27.733333-8.533333-55.466667-14.933333-85.333334-17.066667-12.8-2.133333-27.733333-2.133333-40.533333-2.133333 6.4 23.466667 17.066667 44.8 32 66.133333 10.666667 14.933333 23.466667 27.733333 36.266667 40.533333 0 0 2.133333 0 2.133333 2.133334 8.533333 8.533333 19.2 14.933333 32 19.2 2.133333 0 4.266667 2.133333 4.266667 2.133333 2.133333 0 4.266667-2.133333 4.266666-2.133333 8.533333-8.533333 17.066667-19.2 27.733334-27.733334 12.8-10.666667 25.6-23.466667 42.666666-36.266666 2.133333-4.266667 4.266667-6.4 8.533334-8.533334z m0 0M704 12.8c-2.133333-2.133333-4.266667-2.133333-6.4-4.266667-19.2-12.8-38.4-27.733333-55.466667-44.8-27.733333-8.533333-55.466667-14.933333-85.333333-17.066666-12.8-2.133333-27.733333-2.133333-40.533333-2.133334h-2.133334c6.4 19.2 17.066667 40.533333 27.733334 66.133334 8.533333 19.2 19.2 40.533333 27.733333 59.733333 0 2.133333 2.133333 4.266667 2.133333 6.4 0 2.133333 2.133333 4.266667 2.133334 4.266667 2.133333 8.533333 4.266667 17.066667 6.4 23.466666v4.266667 2.133333 2.133334s2.133333 2.133333 2.133333 0c0 0 2.133333 0 2.133333-2.133334 0 0 2.133333 0 2.133334-2.133333 2.133333-4.266667 6.4-8.533333 8.533333-14.933333 0-2.133333 2.133333-2.133333 2.133333-4.266667 2.133333-2.133333 4.266667-6.4 6.4-6.4 2.133333-2.133333 4.266667-2.133333 6.4 0h6.4s2.133333 0 2.133334-2.133333l4.266666-4.266667c10.666667-10.666667 21.333333-21.333333 34.133334-32 17.066667-8.533333 29.866667-19.2 46.933333-32z m0 0M558.933333 96c21.333333-14.933333 2.133333-8.533333 19.2-25.6 12.8 25.6 87.466667 10.666667 108.8 27.733333-87.466667 93.866667-59.733333 19.2-128-2.133333z m0 0M561.066667 100.266667c21.333333-14.933333 2.133333-8.533333 19.2-25.6 12.8 25.6 87.466667 10.666667 108.8 27.733333-87.466667 93.866667-59.733333 19.2-128-2.133333z m0 0M458.666667 166.4l-68.266667-23.466667 51.2-74.666666 74.666667 64-57.6 34.133333z m0 0M452.266667 174.933333L381.866667 149.333333l51.2-81.066666 81.066666 68.266666-61.866666 38.4z m0 0M573.866667 174.933333l68.266666-25.6-66.133333-85.333333-64 72.533333 61.866667 38.4z m0 0M505.6 121.6c0-2.133333 2.133333-6.4 4.266667-6.4 2.133333-2.133333 6.4-2.133333 8.533333 0 2.133333 2.133333 4.266667 4.266667 4.266667 6.4 0 2.133333-2.133333 6.4-4.266667 6.4-2.133333 2.133333-6.4 2.133333-8.533333 0-2.133333-2.133333-4.266667-4.266667-4.266667-6.4z m0-61.866667c0-4.266667 4.266667-8.533333 8.533333-8.533333s8.533333 4.266667 8.533334 8.533333c0 2.133333-2.133333 6.4-4.266667 6.4-2.133333 2.133333-6.4 2.133333-8.533333 0-2.133333 0-4.266667-2.133333-4.266667-6.4z m0-68.266666c0-2.133333 2.133333-6.4 4.266667-6.4 2.133333-2.133333 6.4-2.133333 8.533333 0 2.133333 2.133333 4.266667 4.266667 4.266667 6.4 0 2.133333-2.133333 6.4-4.266667 6.4-2.133333 2.133333-6.4 2.133333-8.533333 0-2.133333 0-4.266667-4.266667-4.266667-6.4z m0 0M366.933333 81.066667l12.8-4.266667c25.6 57.6 49.066667 85.333333 74.666667 98.133333v14.933334c-27.733333-12.8-57.6-42.666667-87.466667-108.8z m206.933334 110.933333v-14.933333c25.6-10.666667 44.8-38.4 72.533333-106.666667l10.666667 4.266667c-29.866667 78.933333-53.333333 106.666667-83.2 117.333333z m0 0M320-8.533333c-2.133333 0-2.133333 2.133333-4.266667 2.133333 0 2.133333 2.133333 4.266667 2.133334 4.266667 0 2.133333 0 2.133333 2.133333 4.266666 0 2.133333 0 2.133333 2.133333 4.266667v2.133333l4.266667-2.133333c0-2.133333 0-2.133333-2.133333-4.266667v-2.133333c0-2.133333 0-2.133333-2.133334-4.266667-2.133333 0-2.133333-2.133333-2.133333-4.266666z m40.533333 0c-2.133333-4.266667-2.133333-4.266667-4.266666-6.4 0-2.133333-2.133333-2.133333-2.133334-4.266667v-2.133333c0-2.133333-2.133333-2.133333-2.133333-4.266667-2.133333 0-2.133333 0-4.266667 2.133333 0 2.133333 2.133333 4.266667 2.133334 4.266667 0 2.133333 2.133333 2.133333 2.133333 4.266667s2.133333 4.266667 2.133333 4.266666v2.133334h6.4z m0 0M360.533333-19.2l-12.8 4.266667 29.866667 68.266666c2.133333 6.4 0 14.933333-6.4 17.066667-6.4 2.133333-14.933333 0-17.066667-6.4l-29.866666-68.266667-12.8 4.266667 29.866666 68.266667c6.4 12.8 21.333333 19.2 34.133334 12.8 12.8-6.4 19.2-21.333333 12.8-34.133334l-27.733334-66.133333z m0 0M546.133333 633.6c8.533333 29.866667 38.4 46.933333 66.133334 44.8 29.866667-2.133333 57.6-21.333333 78.933333-44.8 6.4-8.533333 12.8-14.933333 17.066667-25.6 14.933333-29.866667 12.8-132.266667 0-162.133333l-162.133334 187.733333z m0 0M548.266667 691.2c17.066667-12.8 32-36.266667 23.466666-59.733333-19.2-29.866667-57.6-27.733333-89.6-36.266667-23.466667-6.4-46.933333-21.333333-70.4-27.733333-27.733333-8.533333-59.733333-4.266667-85.333333 10.666666-25.6 17.066667-44.8 49.066667-44.8 81.066667 12.8-6.4 23.466667-12.8 38.4-12.8 17.066667 0 34.133333 12.8 49.066667 23.466667 17.066667 10.666667 34.133333 19.2 51.2 27.733333 12.8 6.4 25.6 12.8 40.533333 17.066667 27.733333 8.533333 59.733333-2.133333 87.466667-23.466667z m0 0M714.666667 482.133333c0 10.666667-2.133333 19.2-2.133334 23.466667 0 34.133333-10.666667 61.866667-29.866666 89.6-34.133333 46.933333-87.466667 74.666667-145.066667 74.666667H490.666667c-51.2 0-102.4-23.466667-136.533334-61.866667-21.333333-23.466667-36.266667-51.2-42.666666-83.2-4.266667-14.933333-4.266667-32-4.266667-49.066667 0-12.8-2.133333-36.266667 14.933333-27.733333 10.666667 6.4 19.2 25.6 27.733334 34.133333 10.666667 10.666667 23.466667 21.333333 36.266666 29.866667 25.6 17.066667 55.466667 27.733333 87.466667 27.733333 49.066667 2.133333 98.133333-17.066667 140.8-40.533333 23.466667-12.8 46.933333-21.333333 64-44.8 4.266667-6.4 8.533333-12.8 14.933333-14.933333 19.2-2.133333 21.333333 21.333333 21.333334 42.666666z m0 0M311.466667 492.8c2.133333 4.266667 6.4 8.533333 10.666666 12.8 12.8 12.8 32 17.066667 51.2 17.066667-17.066667-19.2-36.266667-40.533333-36.266666-66.133334 0-17.066667 6.4-34.133333-2.133334-51.2-12.8 21.333333-21.333333 46.933333-23.466666 70.4-2.133333 4.266667-2.133333 10.666667 0 17.066667z m398.933333 0c-2.133333 4.266667-6.4 8.533333-10.666667 12.8-12.8 12.8-32 17.066667-51.2 17.066667 17.066667-19.2 36.266667-40.533333 36.266667-66.133334 0-17.066667-6.4-34.133333 2.133333-51.2 12.8 21.333333 21.333333 46.933333 23.466667 70.4 2.133333 4.266667 2.133333 10.666667 0 17.066667z m0 0M571.733333 226.133333v-17.066666c-34.133333-19.2-78.933333-14.933333-121.6 0v19.2h2.133334c19.2-8.533333 38.4-12.8 59.733333-12.8 21.333333-2.133333 42.666667 2.133333 59.733333 10.666666z m0 0"  horiz-adv-x="1024" />

    
    <glyph glyph-name="shenfenzheng1" unicode="&#58984;" d="M508.819876 896c-279.850932 0-508.819876-228.968944-508.819876-508.819876 0-184.447205 95.403727-349.813665 254.409938-438.857143 159.006211-89.043478 349.813665-89.043478 508.819876 0s254.409938 260.770186 254.409938 438.857143c0 279.850932-228.968944 508.819876-508.819876 508.819876z m235.329192-807.751553c-25.440994 0-38.161491 12.720497-38.16149 38.161491 0 108.124224-89.043478 197.167702-197.167702 197.167702-108.124224 0-197.167702-89.043478-197.167702-197.167702 0-25.440994-12.720497-38.161491-38.161491-38.161491-25.440994 0-38.161491 25.440994-38.16149 38.161491 0 101.763975 57.242236 190.807453 146.285714 235.329192l12.720497 6.360249-6.360249 12.720497c-25.440994 38.161491-57.242236 69.962733-57.242236 127.204969 0 95.403727 82.68323 178.086957 178.086957 178.086956s178.086957-82.68323 178.086956-178.086956c0-44.521739-19.080745-89.043478-50.881987-127.204969l-12.720497-12.720497 12.720497-6.360249c89.043478-38.161491 146.285714-127.204969 146.285714-235.329192 0-25.440994-12.720497-38.161491-38.161491-38.161491zM508.819876 609.78882c-63.602484 0-108.124224-44.521739-108.124224-108.124224 0-50.881988 44.521739-101.763975 108.124224-101.763975S616.944099 444.42236 616.944099 508.024845 572.42236 609.78882 508.819876 609.78882z"  horiz-adv-x="1024" />

    
    <glyph glyph-name="yibaoqia" unicode="&#58985;" d="M339.2 550.4c-44.8 0-76.8-32-76.8-76.8 0-38.4 25.6-76.8 76.8-76.8 44.8 0 76.8 32 76.8 76.8S384 550.4 339.2 550.4zM512 896C230.4 896 0 665.6 0 384c0-185.6 96-352 256-441.6 160-89.6 352-89.6 512 0s256 262.4 256 441.6c0 281.6-224 512-512 512z m140.8-352h217.6c19.2 0 32-12.8 32-32 0-12.8-12.8-32-32-32h-217.6c-19.2-6.4-32 6.4-32 32 0 19.2 12.8 32 32 32z m-134.4-396.8c-19.2 0-32 12.8-32 32 0 83.2-64 147.2-147.2 147.2S192 262.4 192 185.60000000000002c0-19.2-12.8-32-32-32s-32 19.2-32 32c0 76.8 44.8 147.2 115.2 185.6-25.6 32-44.8 57.6-44.8 102.4 0 76.8 64 140.8 140.8 140.8s140.8-64 140.8-140.8c0-38.4-12.8-70.4-44.8-102.4h6.4c70.4-32 115.2-102.4 115.2-185.6 0-19.2-12.8-38.4-38.4-38.4z m352 38.4h-217.6c-19.2 0-32 12.8-32 32s12.8 38.4 32 38.4h217.6c19.2 0 32-12.8 32-32s-12.8-38.4-32-38.4z m0 147.2h-217.6c-19.2 0-32 12.8-32 32s12.8 32 32 32h217.6c19.2 0 32-12.8 32-32 0-12.8-12.8-32-32-32z"  horiz-adv-x="1024" />

    
    <glyph glyph-name="qingkong2" unicode="&#58986;" d="M512 896C230.4 896 0 665.6 0 384c0-185.6 96-352 256-441.6 160-89.6 352-89.6 512 0s256 262.4 256 441.6c0 281.6-230.4 512-512 512z m249.6-230.4L608 396.8l19.2-38.4 44.8-230.4c6.4-32 0-57.6-19.2-76.8-6.4-6.4-19.2-12.8-32-12.8s-32 6.4-44.8 12.8l-19.2 19.2c0 6.4 0 19.2 6.4 25.6 6.4 25.6 19.2 32 38.4 32l-44.8 217.6c0 6.4-6.4 12.8-6.4 12.8h-6.4-25.6l-204.8-64L486.4 192l19.2-19.2c0-6.4 0-19.2-6.4-25.6-6.4-12.8-12.8-19.2-19.2-19.2-6.4 0-19.2 0-25.6 6.4l-185.6 108.8c-25.6 19.2-44.8 38.4-38.4 64 0 25.6 25.6 44.8 51.2 57.6l217.6 70.4h44.8L697.6 704l19.2 19.2c6.4 0 19.2 0 25.6-6.4 19.2-12.8 25.6-32 19.2-51.2z"  horiz-adv-x="1024" />

    
    <glyph glyph-name="wumingshi1" unicode="&#58988;" d="M510.404984 889.619938c-280.722741 0-510.404984-229.682243-510.404984-510.404985C0 194.19314599999996 95.700935 28.311525999999958 255.202492-61.00934600000005c159.501558-89.320872 350.903427-89.320872 510.404985 0s255.202492 261.582555 255.202492 440.224299c0 280.722741-229.682243 510.404984-510.404985 510.404985z m57.420561-842.168225H459.364486v114.841122h108.461059v-114.841122z m127.601246 395.563863c-12.760125-25.520249-38.280374-57.420561-82.94081-89.320872-25.520249-25.520249-38.280374-44.660436-44.660436-57.420561-6.380062-12.760125-6.380062-31.900312-6.380062-51.040498v-25.520249H465.744548v19.140187c0 44.660436 6.380062 76.560748 12.760125 95.700934 6.380062 19.140187 25.520249 38.280374 51.040498 63.800623s44.660436 44.660436 57.420561 63.800623c12.760125 19.140187 19.140187 38.280374 19.140187 63.800623 0 31.900312-6.380062 51.040498-25.520249 70.180686-12.760125 12.760125-38.280374 25.520249-63.800623 25.520249-51.040498-6.380062-89.320872-51.040498-89.320873-140.361371l-95.700934 19.140187C344.523364 634.417445 408.323988 704.598131 529.545171 704.598131c57.420561 0 102.080997-19.140187 133.981309-51.040499s51.040498-76.560748 51.040498-127.601246c0-25.520249-6.380062-51.040498-19.140187-82.94081z"  horiz-adv-x="1024" />

    
    <glyph glyph-name="zengjia-" unicode="&#58989;" d="M512 896C230.4 896 0 665.6 0 384c0-185.6 96-352 256-441.6 160-89.6 352-89.6 512 0s256 262.4 256 441.6c0 281.6-230.4 512-512 512z m275.2-550.4H550.4v-243.2c0-19.2-12.8-38.4-38.4-38.4-25.6 0-38.4 12.8-44.8 38.4V345.6H230.4c-19.2 0-38.4 12.8-38.4 38.4 0 25.6 19.2 38.4 44.8 38.4h236.8V665.6c0 25.6 12.8 38.4 38.4 38.4 25.6 0 38.4-12.8 38.4-38.4v-243.2h236.8c25.6 0 44.8-12.8 44.8-38.4 0-25.6-19.2-38.4-44.8-38.4z"  horiz-adv-x="1024" />

    
    <glyph glyph-name="liebiao1" unicode="&#58965;" d="M896-96H128c-51.2 0-96 44.8-96 96V768C32 819.2 76.8 864 128 864h768c51.2 0 96-44.8 96-96v-768c0-57.6-44.8-96-96-96zM128 800c-19.2 0-32-19.2-32-32v-768c0-19.2 12.8-32 32-32h768c19.2 0 32 12.8 32 32V768c0 19.2-12.8 32-32 32H128zM224 640h576v-64h-576zM224 416h576v-64h-576zM224 192h576v-64h-576z"  horiz-adv-x="1024" />

    
    </font>
</defs>
</svg>
