<?xml version="1.0" standalone="no"?><!DOCTYPE svg PUBLIC "-//W3C//DTD SVG 1.1//EN"
        "http://www.w3.org/Graphics/SVG/1.1/DTD/svg11.dtd">
<svg t="1514025741560" class="icon" style="" viewBox="0 0 6659 1024" version="1.1" xmlns="http://www.w3.org/2000/svg"
     p-id="10088"
     width="1300.5859375" height="200">
    <defs>
        <style type="text/css"></style>
    </defs>
    <path d="M1155.80586 366.215663c-11.713968-32.43868-30.636531-63.07521-54.064466-90.107444-23.427935-26.131159-52.262317-48.658019-83.799922-64.877359-23.427935-11.713968-48.658019-19.823638-74.789178-24.32901-21.625786-46.855871-54.064466-88.305295-95.51389-119.842899C799.881459 30.114899 740.410546 6.686963 680.038559 1.280517 619.666572-4.12593 556.591361 7.588038 502.526895 36.42242c-44.152647 22.526861-81.997774 55.866615-111.733229 95.51389-18.021489-1.802149-36.944052-0.901074-54.965541 3.604298-29.735456 6.307521-57.668764 19.823638-81.997773 37.845126-37.845126 28.834382-63.07521 72.987029-71.184881 118.941825-47.756945 9.911819-92.810667 35.141903-125.249346 70.283806-41.449424 45.053722-61.273062 107.227858-56.76769 164.896622 5.406447 59.470913 36.042977 114.436453 79.294551 148.677281 43.251573 35.141903 100.019262 49.559094 151.380505 41.449424-51.361243-3.604298-99.118188-27.032233-130.655793-63.07521-32.43868-35.141903-47.756945-81.997774-45.053722-127.051495 1.802149-45.053722 22.526861-86.503146 54.064466-114.436454 30.636531-28.834382 72.987029-43.251573 113.535379-41.449424l39.647275 2.703224 2.703223-44.152648c1.802149-33.339754 18.021489-64.877359 45.053722-82.898848 13.516117-9.010744 27.933307-15.318265 44.152647-18.021488 16.21934-1.802149 31.537605-0.901074 46.855871 3.604298l35.141903 10.812893 19.823637-32.43868c22.526861-36.042977 54.965541-65.778434 92.810667-84.700997 37.845126-18.922563 80.195625-27.032233 123.447198-24.329009 84.700997 6.307521 163.995547 63.07521 198.236375 143.270835l11.713968 27.933307 27.032233 0.901075c49.559094 1.802149 99.118188 21.625786 136.963314 56.767689 37.845126 35.141903 61.273062 85.602071 65.778434 138.765463 4.505372 55.866615-3.604298 113.535379-34.240829 160.391249-30.636531 46.855871-86.503146 78.393476-145.974058 88.305295 61.273062 4.505372 127.95257-17.120414 173.907366-65.778434 22.526861-24.32901 39.647275-54.064466 50.460168-86.503146 5.406447-15.318265 8.10967-32.43868 11.713967-48.658019 1.802149-16.21934 3.604298-32.43868 4.505373-49.559094 0-34.240829-5.406447-69.382731-17.120415-101.821411z"
          fill="#21B394" p-id="10089"></path>
    <path d="M1042.270482 731.150809c-13.516117 8.10967-29.735456 13.516117-47.756945 17.120414-27.032233 4.505372-51.361243 1.802149-73.888104-6.307521-2.703223-0.901074-5.406447-2.703223-8.10967-3.604298-4.505372-2.703223-8.10967-5.406447-10.812893-8.10967-4.505372-4.505372-7.208595-10.812893-8.10967-17.120414V712.228246v-4.505372c0-0.901074 0-2.703223 0.901074-3.604298 1.802149-8.10967 6.307521-16.21934 12.615042-25.230084-0.901074 0.901074-1.802149 1.802149-3.604297 2.703223-14.417191 13.516117-22.526861 27.032233-23.427936 39.647275v2.703223c0 4.505372 0.901074 8.10967 1.802149 11.713968l0.901075 0.901074c5.406447 11.713968 18.021489 17.120414 19.823637 18.021489 23.427935 9.010744 52.262317 9.911819 85.602072 1.802149 21.625786-5.406447 40.54835-13.516117 56.767689-24.32901 2.703223-1.802149 5.406447-3.604298 8.10967-6.307521 5.406447-4.505372 9.911819-9.010744 10.812893-12.615042-0.901074 1.802149-2.703223 2.703223-3.604298 4.505372-5.406447 4.505372-10.812893 9.911819-18.021488 13.516117z"
          fill="#E83C58" p-id="10090"></path>
    <path d="M291.675478 990.660246c0.901074 0 2.703223-0.901074 3.604297-0.901075 3.604298-0.901074 7.208595-1.802149 11.713968-2.703223 12.615042-2.703223 25.230084-7.208595 37.845126-13.516116 0.901074 0 1.802149-0.901074 2.703224-0.901075 3.604298-1.802149 6.307521-2.703223 9.911818-4.505372 63.07521-31.537605 113.535379-83.799922 150.479431-155.885877 4.505372-9.010744 9.010744-18.922563 12.615042-27.933308 6.307521-16.21934 10.812893-33.339754 13.516117-51.361242 4.505372-27.032233 3.604298-53.163392-3.604298-78.393476 0-0.901074-0.901074-1.802149-0.901075-2.703223-1.802149-5.406447-3.604298-11.713968-5.406446-17.120415-1.802149-4.505372-4.505372-9.911819-6.307521-14.417191v-0.901074c-13.516117-27.032233-33.339754-52.262317-58.569838-72.987029l10.812893 5.406446c44.152647 23.427935 73.888104 54.064466 92.810667 93.711742v-9.911819c0-0.901074 0.901074-9.911819 0.901074-10.812893 2.703223-26.131159 8.10967-53.163392 15.318265-80.195625 1.802149-6.307521 3.604298-12.615042 6.307521-18.922563 6.307521-19.823638 15.318265-37.845126 24.32901-54.965541 18.021489-31.537605 42.350498-54.965541 70.283806-63.976285-3.604298 3.604298-7.208595 7.208595-9.911819 11.713968-5.406447 10.812893-10.812893 21.625786-15.318265 32.43868v0.901074c-3.604298 8.10967-6.307521 16.21934-9.010744 24.32901-2.703223 9.010744-6.307521 18.922563-8.10967 28.834382 0 1.802149-0.901074 2.703223-0.901075 4.505372-0.901074 2.703223-0.901074 6.307521-1.802149 9.010744-7.208595 24.32901-9.911819 53.163392-9.911818 85.602072v2.703223c0 5.406447 0 11.713968 0.901074 18.021489 0 3.604298 0 8.10967 0.901074 11.713967 0 5.406447 0.901074 9.911819 1.802149 14.417191 2.703223 18.922563 5.406447 37.845126 10.812893 56.76769 3.604298 13.516117 7.208595 26.131159 10.812894 37.845126 1.802149 4.505372 2.703223 8.10967 4.505372 12.615042 1.802149 3.604298 2.703223 7.208595 4.505372 10.812893 7.208595 18.922563 15.318265 36.042977 24.32901 52.262317 39.647275 73.888104 91.008518 127.051495 153.182654 155.885877 54.064466 25.230084 107.227858 27.933307 156.786951 9.010745 9.911819-4.505372 18.922563-9.911819 26.131159-17.120415-24.32901 28.834382-67.580583 49.559094-119.8429 53.163392h-2.703223c-5.406447 0-11.713968 0.901074-18.021489 0.901075-24.32901 0-49.559094-3.604298-74.789178-10.812894-102.722486-27.933307-177.511664-100.920337-222.565385-218.961087-0.901074-1.802149-2.703223-6.307521-4.505373-13.516117-5.406447 25.230084-14.417191 42.350498-15.318265 45.954796-39.647275 78.393476-100.920337 132.457942-182.017036 160.39125-54.064466 18.922563-104.524634 22.526861-153.182654 10.812893-1.802149 0-2.703223-0.901074-4.505372-1.802149 24.32901 2.703223 46.855871 0 69.382732-4.505372z"
          fill="#21B394" p-id="10091"></path>
    <path d="M1400.898107 873.520569h-90.107444v-69.382731h-18.021489v159.490175h18.021489v-73.888104h90.107444v73.888104h17.120414V804.137838h-17.120414zM1499.11522 844.686188c-35.141903 1.802149-53.163392 22.526861-54.064466 62.174136 0.901074 37.845126 19.823638 57.668764 54.96554 59.470912 27.933307 0.901074 45.053722-10.812893 51.361243-34.240828l-18.021489-4.505372c-4.505372 17.120414-16.21934 25.230084-34.240828 25.230084-22.526861-1.802149-35.141903-15.318265-36.042977-41.449424h89.206369v-3.604298c-1.802149-41.449424-18.922563-62.174136-53.163392-63.07521z m-35.141903 52.262317c1.802149-22.526861 13.516117-34.240829 35.141903-36.944052 21.625786 0.901074 33.339754 13.516117 34.240828 36.944052h-69.382731zM1670.319362 888.838835c0.901074-30.636531-14.417191-45.053722-45.954796-45.053722-28.834382-0.901074-45.954796 10.812893-52.262317 34.240829l17.120414 4.505372c2.703223-17.120414 14.417191-25.230084 34.240829-24.32901 20.724712-0.901074 30.636531 9.010744 28.834382 30.636531-4.505372 3.604298-18.021489 6.307521-40.54835 9.010744-27.933307 2.703223-41.449424 15.318265-42.350498 37.845126 1.802149 18.922563 14.417191 29.735456 39.647275 30.636531 20.724712 0 36.042977-6.307521 45.954796-18.922563 0 6.307521 1.802149 11.713968 5.406447 16.21934h17.120414c-4.505372-5.406447-7.208595-14.417191-6.307521-27.032233v-47.756945z m-17.120414 29.735456c-1.802149 20.724712-15.318265 31.537605-39.647275 33.339754-17.120414 0-26.131159-6.307521-26.131158-18.021488-0.901074-12.615042 9.911819-19.823638 31.537605-22.526861 20.724712-1.802149 32.43868-4.505372 34.240828-9.010745v16.21934zM1700.054819 804.137838h17.120414v158.5891h-17.120414zM1780.250443 953.716194c-9.010744 0.901074-13.516117-4.505372-12.615042-14.417191v-78.393476h21.625787V847.389411H1767.635401v-39.647275l-17.120414 9.010744V847.389411h-16.21934v14.417191h16.21934v78.393476c-0.901074 18.021489 7.208595 26.131159 24.32901 25.230084 6.307521 0 12.615042-0.901074 18.021489-3.604298l-3.604298-9.010744c-2.703223 0.901074-6.307521 0.901074-9.010745 0.901074zM1863.149291 843.785113c-16.21934 0.901074-28.834382 7.208595-37.845126 20.724712v-60.371987h-18.021488v159.490175h18.021488v-72.085955c1.802149-19.823638 12.615042-30.636531 33.339754-33.339754 18.021489 0 26.131159 10.812893 26.131159 32.43868v72.085954h18.021489v-73.888103c0.901074-30.636531-12.615042-45.053722-39.647276-45.053722zM1978.486819 952.81512c-22.526861 0-34.240829-15.318265-34.240828-45.954796 0-31.537605 11.713968-46.855871 34.240828-46.855871 15.318265 0.901074 25.230084 9.911819 29.735456 25.230084l17.120415-5.406447c-6.307521-22.526861-22.526861-34.240829-47.756945-34.240828-33.339754 1.802149-50.460168 21.625786-51.361243 61.273062 0.901074 38.746201 18.021489 58.569838 52.262317 59.470912 27.933307 0.901074 44.152647-12.615042 48.65802-39.647275l-18.021489-3.604298c-1.802149 18.922563-11.713968 29.735456-30.636531 29.735457zM2139.779143 888.838835c0.901074-30.636531-14.417191-45.053722-45.954796-45.053722-28.834382-0.901074-45.954796 10.812893-52.262318 34.240829l17.120415 4.505372c2.703223-17.120414 14.417191-25.230084 34.240828-24.32901 20.724712-0.901074 30.636531 9.010744 28.834382 30.636531-4.505372 3.604298-18.021489 6.307521-40.548349 9.010744-27.933307 2.703223-41.449424 15.318265-42.350499 37.845126 1.802149 18.922563 14.417191 29.735456 39.647275 30.636531 20.724712 0 36.042977-6.307521 45.954796-18.922563 0 6.307521 1.802149 11.713968 5.406447 16.21934h17.120414c-4.505372-5.406447-7.208595-14.417191-6.307521-27.032233v-47.756945z m-18.021489 29.735456c-1.802149 20.724712-15.318265 31.537605-39.647275 33.339754-17.120414 0-26.131159-6.307521-26.131159-18.021488-0.901074-12.615042 9.911819-19.823638 31.537606-22.526861 20.724712-1.802149 32.43868-4.505372 34.240828-9.010745v16.21934zM2186.635013 868.114123l-0.901074-20.724712h-17.120414v116.238602h17.120414v-63.075211c0-12.615042 2.703223-22.526861 7.208595-27.933307 6.307521-7.208595 11.713968-10.812893 18.021489-10.812893 4.505372 0 9.911819 1.802149 14.417191 4.505372l7.208596-16.21934c-6.307521-4.505372-12.615042-6.307521-18.922564-5.406446-12.615042 0.901074-21.625786 8.10967-27.032233 23.427935zM2295.66502 844.686188c-35.141903 1.802149-53.163392 22.526861-54.064466 62.174136 0.901074 37.845126 19.823638 57.668764 54.96554 59.470912 27.933307 0.901074 45.053722-10.812893 51.361243-34.240828l-18.021488-4.505372c-4.505372 17.120414-16.21934 25.230084-34.240829 25.230084-22.526861-1.802149-35.141903-15.318265-36.042977-41.449424h89.206369v-3.604298c-0.901074-41.449424-18.922563-62.174136-53.163392-63.07521z m-35.141903 52.262317c1.802149-22.526861 13.516117-34.240829 35.141903-36.944052 21.625786 0.901074 33.339754 13.516117 34.240829 36.944052h-69.382732zM2435.331557 804.137838h18.021489v159.490175h-18.021489zM2542.559415 843.785113c-16.21934 0.901074-29.735456 7.208595-38.746201 20.724712v-18.021489h-17.120414v116.238602l17.120414-0.901074v-71.18488c1.802149-19.823638 13.516117-30.636531 34.240829-33.339754 18.021489 0.901074 27.032233 11.713968 27.032233 32.438679v72.085955h17.120414v-73.888104c0-28.834382-13.516117-44.152647-39.647275-44.152647zM2645.281901 953.716194c-9.010744 0.901074-13.516117-4.505372-12.615042-14.417191v-78.393476h21.625786V847.389411H2632.666859v-39.647275l-17.120415 9.010744V847.389411h-16.21934v14.417191h16.21934v78.393476c-0.901074 18.021489 7.208595 26.131159 24.32901 25.230084 6.307521 0 12.615042-0.901074 18.021489-3.604298l-3.604298-9.010744c-2.703223 0.901074-5.406447 0.901074-9.010744 0.901074zM2722.774302 844.686188c-35.141903 1.802149-53.163392 22.526861-54.064466 62.174136 0.901074 37.845126 19.823638 57.668764 54.96554 59.470912 27.933307 0.901074 45.053722-10.812893 51.361243-34.240828l-18.021489-4.505372c-4.505372 17.120414-16.21934 25.230084-34.240828 25.230084-22.526861-1.802149-35.141903-15.318265-36.042977-41.449424h89.206369v-3.604298c-1.802149-41.449424-18.922563-62.174136-53.163392-63.07521z m-35.141903 52.262317c1.802149-22.526861 13.516117-34.240829 35.141903-36.944052 21.625786 0.901074 33.339754 13.516117 34.240828 36.944052h-69.382731zM2876.85803 863.608751c-8.10967-12.615042-19.823638-18.922563-35.141903-18.922563-32.43868 1.802149-48.658019 21.625786-50.460168 59.470912 0.901074 36.042977 16.21934 54.064466 46.855871 55.866615 20.724712 0.901074 34.240829-5.406447 39.647275-18.021489v11.713968c0.901074 25.230084-12.615042 36.944052-38.746201 36.944052-12.615042-0.901074-24.32901-4.505372-35.141903-11.713968l-7.208595 9.010745c9.911819 10.812893 24.32901 17.120414 43.251572 17.120414 38.746201 1.802149 57.668764-17.120414 54.965541-54.965541V847.389411h-18.021489v16.21934z m0 45.954796c-0.901074 25.230084-11.713968 37.845126-34.240828 37.845126-21.625786-1.802149-33.339754-16.21934-34.240829-44.152647 0.901074-28.834382 13.516117-44.152647 36.944052-45.053722 19.823638 1.802149 30.636531 13.516117 32.43868 33.339754v18.021489zM2940.834315 868.114123l-0.901074-20.724712h-17.120415v116.238602h17.120415v-63.075211c0-12.615042 2.703223-22.526861 7.208595-27.933307 6.307521-7.208595 11.713968-10.812893 18.021489-10.812893 4.505372 0 9.911819 1.802149 14.417191 4.505372l7.208595-16.21934c-6.307521-4.505372-12.615042-6.307521-18.922563-5.406446-12.615042 0.901074-21.625786 8.10967-27.032233 23.427935zM3096.720192 888.838835c0.901074-30.636531-14.417191-45.053722-45.954796-45.053722-28.834382-0.901074-45.954796 10.812893-52.262317 34.240829l17.120414 4.505372c2.703223-17.120414 14.417191-25.230084 34.240829-24.32901 20.724712-0.901074 30.636531 9.010744 28.834382 30.636531-4.505372 3.604298-18.021489 6.307521-40.54835 9.010744-27.933307 2.703223-41.449424 15.318265-42.350498 37.845126 1.802149 18.922563 14.417191 29.735456 39.647275 30.636531 20.724712 0 36.042977-6.307521 45.954796-18.922563 0 6.307521 1.802149 11.713968 5.406446 16.21934h17.120415c-4.505372-5.406447-7.208595-14.417191-6.307521-27.032233v-47.756945z m-18.021488 29.735456c-1.802149 20.724712-15.318265 31.537605-39.647276 33.339754-17.120414 0-26.131159-6.307521-26.131158-18.021488-0.901074-12.615042 9.911819-19.823638 31.537605-22.526861 20.724712-1.802149 32.43868-4.505372 34.240829-9.010745v16.21934zM3159.795403 953.716194c-9.010744 0.901074-13.516117-4.505372-12.615042-14.417191v-78.393476h21.625786V847.389411h-21.625786v-39.647275l-17.120415 9.010744V847.389411h-16.219339v14.417191h16.219339v78.393476c-0.901074 18.021489 7.208595 26.131159 24.32901 25.230084 6.307521 0 12.615042-0.901074 18.021489-3.604298l-3.604298-9.010744c-2.703223 0.901074-6.307521 0.901074-9.010744 0.901074zM3236.38673 844.686188c-35.141903 1.802149-53.163392 22.526861-54.064466 62.174136 0.901074 37.845126 19.823638 57.668764 54.96554 59.470912 27.933307 0.901074 45.053722-10.812893 51.361243-34.240828l-18.021489-4.505372c-4.505372 17.120414-16.21934 25.230084-34.240828 25.230084-22.526861-1.802149-35.141903-15.318265-36.042978-41.449424h89.206369v-3.604298c-0.901074-41.449424-18.922563-62.174136-53.163391-63.07521z m-35.141903 52.262317c1.802149-22.526861 13.516117-34.240829 35.141903-36.944052 21.625786 0.901074 33.339754 13.516117 34.240828 36.944052h-69.382731zM3389.569383 864.509825c-8.10967-12.615042-19.823638-19.823638-33.339754-19.823637-31.537605 1.802149-47.756945 22.526861-49.559094 62.174136 0.901074 36.944052 16.21934 56.767689 45.954797 58.569838 18.922563 0.901074 31.537605-6.307521 37.845126-18.922563v17.120414h18.021489V804.137838h-18.021489v60.371987z m0 47.756945c-0.901074 27.032233-11.713968 40.54835-32.438679 40.54835-21.625786-0.901074-33.339754-16.21934-33.339754-45.954796 0.901074-31.537605 12.615042-47.756945 36.042977-47.756946 18.922563 1.802149 28.834382 13.516117 30.636531 35.141903v18.021489zM3513.917655 889.739909H3605.827248v-16.21934h-91.909593v-54.064466h97.316039v-15.318265h-115.337527v159.490175h119.8429v-14.417191h-101.821412zM3760.81205 843.785113c-14.417191 0-26.131159 8.10967-34.240828 24.32901-4.505372-16.21934-16.21934-24.32901-36.042977-24.32901-12.615042 0-23.427935 7.208595-31.537606 20.724712v-18.021489H3641.870225v115.337528h17.120414v-72.987029c1.802149-19.823638 12.615042-30.636531 30.636531-31.537605 16.21934-0.901074 23.427935 10.812893 23.427935 32.438679v72.085955h17.120415v-71.18488c1.802149-20.724712 11.713968-31.537605 29.735456-33.339754 16.21934-0.901074 24.32901 10.812893 24.32901 32.438679v72.085955h17.120414v-75.690252c-1.802149-27.933307-14.417191-42.350498-40.54835-42.350499zM3875.248504 844.686188c-34.240829 1.802149-53.163392 22.526861-54.064466 62.174136 0.901074 37.845126 19.823638 57.668764 54.96554 59.470912 27.933307 0.901074 45.053722-10.812893 51.361243-34.240828l-18.021489-4.505372c-4.505372 17.120414-16.21934 25.230084-34.240828 25.230084-22.526861-1.802149-35.141903-15.318265-36.042978-41.449424h89.206369v-3.604298c-0.901074-41.449424-18.922563-62.174136-53.163391-63.07521z m-35.141903 52.262317c1.802149-22.526861 13.516117-34.240829 35.141903-36.944052 21.625786 0.901074 33.339754 13.516117 34.240828 36.944052H3840.106601zM3968.960245 868.114123l-0.901075-20.724712h-17.120414v116.238602h17.120414v-63.075211c0-12.615042 2.703223-22.526861 7.208596-27.933307 6.307521-7.208595 11.713968-10.812893 18.021489-10.812893 4.505372 0 9.911819 1.802149 14.417191 4.505372l7.208595-16.21934c-6.307521-4.505372-12.615042-6.307521-18.922563-5.406446-12.615042 0.901074-21.625786 8.10967-27.032233 23.427935zM4107.725708 863.608751c-8.10967-12.615042-19.823638-18.922563-35.141903-18.922563-31.537605 1.802149-48.658019 21.625786-50.460169 59.470912 0.901074 36.042977 16.21934 54.064466 46.855871 55.866615 20.724712 0.901074 34.240829-5.406447 39.647275-18.021489v11.713968c0.901074 25.230084-12.615042 36.944052-38.746201 36.944052-12.615042-0.901074-24.32901-4.505372-35.141902-11.713968l-7.208596 9.010745c9.911819 10.812893 24.32901 17.120414 43.251573 17.120414 38.746201 1.802149 57.668764-17.120414 54.96554-54.965541V847.389411h-18.021488v16.21934z m0 45.954796c-0.901074 25.230084-11.713968 37.845126-34.240829 37.845126-21.625786-1.802149-33.339754-16.21934-34.240828-44.152647 0.901074-28.834382 13.516117-44.152647 36.944052-45.053722 19.823638 1.802149 30.636531 13.516117 31.537605 33.339754v18.021489zM4203.239598 844.686188c-35.141903 1.802149-53.163392 22.526861-54.064466 62.174136 0.901074 37.845126 19.823638 57.668764 54.96554 59.470912 27.933307 0.901074 45.053722-10.812893 51.361243-34.240828l-18.021489-4.505372c-4.505372 17.120414-16.21934 25.230084-34.240828 25.230084-22.526861-1.802149-35.141903-15.318265-36.042978-41.449424h89.206369v-3.604298c-1.802149-41.449424-19.823638-62.174136-53.163391-63.07521z m-36.042978 52.262317c1.802149-22.526861 13.516117-34.240829 35.141903-36.944052 21.625786 0.901074 33.339754 13.516117 34.240829 36.944052h-69.382732zM4333.895391 843.785113c-16.21934 0.901074-29.735456 7.208595-38.746201 20.724712v-18.021489h-17.120414v116.238602l17.120414-0.901074v-71.18488c1.802149-19.823638 13.516117-30.636531 34.240829-33.339754 18.021489 0.901074 27.032233 11.713968 27.032233 32.438679v72.085955h17.120414v-73.888104c0.901074-28.834382-12.615042-44.152647-39.647275-44.152647zM4451.035067 952.81512c-22.526861 0-34.240829-15.318265-34.240828-45.954796 0-31.537605 11.713968-46.855871 34.240828-46.855871 15.318265 0.901074 25.230084 9.911819 29.735457 25.230084l17.120414-5.406447c-6.307521-22.526861-22.526861-34.240829-47.756945-34.240828-33.339754 1.802149-50.460168 21.625786-51.361243 61.273062 0.901074 38.746201 18.021489 58.569838 52.262317 59.470912 27.933307 0.901074 44.152647-12.615042 48.65802-39.647275l-18.021489-3.604298c-1.802149 18.922563-11.713968 29.735456-30.636531 29.735457zM4561.867223 936.59578c-1.802149 2.703223-2.703223 5.406447-2.703224 8.10967h-0.901074c0-0.901074-0.901074-2.703223-1.802149-6.307521-0.901074-1.802149-0.901074-2.703223-0.901074-3.604298-0.901074-1.802149-11.713968-31.537605-31.537606-87.40422h-18.922563l45.053722 111.73323c-2.703223 7.208595-4.505372 12.615042-6.307521 16.21934-4.505372 10.812893-11.713968 15.318265-19.823638 15.318265-4.505372 0-8.10967-0.901074-10.812893-1.802149l-2.703223 10.812893c4.505372 2.703223 10.812893 4.505372 17.120414 4.505372 16.21934 2.703223 27.933307-8.10967 36.042978-32.438679 4.505372-10.812893 21.625786-52.262317 49.559093-123.447198h-18.021488l-33.339754 88.305295zM4691.621941 804.137838h18.021489v159.490175h-18.021489zM4798.849799 843.785113c-16.21934 0.901074-29.735456 7.208595-38.746201 20.724712v-18.021489h-17.120414v116.238602l17.120414-0.901074v-71.18488c1.802149-19.823638 13.516117-30.636531 34.240829-33.339754 18.021489 0.901074 27.032233 11.713968 27.032233 32.438679v72.085955h17.120414v-73.888104c0-28.834382-13.516117-44.152647-39.647275-44.152647zM4871.836828 832.97222V847.389411h-18.021489v14.417191h18.021489v100.920336h17.120414V861.806602h24.32901V847.389411h-24.32901l0.901075-15.318266c-0.901074-10.812893 4.505372-16.21934 14.417191-16.219339 5.406447 0 10.812893 0.901074 15.318265 2.703223l3.604298-12.615042c-7.208595-2.703223-15.318265-3.604298-23.427935-3.604298-18.922563-0.901074-27.933307 9.010744-27.933308 30.636531zM4979.064686 844.686188c-36.042977 0.901074-54.965541 21.625786-55.866615 63.07521 1.802149 36.944052 19.823638 55.866615 54.064466 58.569838 36.042977-0.901074 54.064466-20.724712 54.064466-60.371987-0.901074-39.647275-18.021489-59.470913-52.262317-61.273061z m0 109.030006c-24.32901-0.901074-36.944052-16.21934-37.845126-45.954796 0.901074-31.537605 13.516117-47.756945 37.845126-48.65802 21.625786 1.802149 33.339754 18.021489 35.141903 47.756946-0.901074 29.735456-12.615042 45.053722-35.141903 46.85587zM5072.776427 868.114123l-0.901074-20.724712h-17.120415v116.238602h17.120415v-63.075211c0-12.615042 2.703223-22.526861 7.208595-27.933307 6.307521-7.208595 11.713968-10.812893 18.021489-10.812893 4.505372 0 9.911819 1.802149 14.417191 4.505372l7.208595-16.21934c-6.307521-4.505372-12.615042-6.307521-18.922563-5.406446-12.615042 0.901074-21.625786 8.10967-27.032233 23.427935zM5252.09024 843.785113c-14.417191 0-26.131159 8.10967-34.240829 24.32901-4.505372-16.21934-16.21934-24.32901-36.042977-24.32901-12.615042 0-23.427935 7.208595-31.537606 20.724712v-18.021489h-17.120414v115.337528h17.120414v-72.987029c1.802149-19.823638 12.615042-30.636531 30.636531-31.537605 16.21934-0.901074 23.427935 10.812893 23.427935 32.438679v72.085955h17.120415v-71.18488c1.802149-20.724712 11.713968-31.537605 29.735456-33.339754 16.21934-0.901074 24.32901 10.812893 24.32901 32.438679v72.085955h17.120414v-75.690252c-0.901074-27.933307-14.417191-42.350498-40.548349-42.350499zM5413.382563 888.838835c0.901074-30.636531-14.417191-45.053722-45.954796-45.053722-28.834382-0.901074-45.954796 10.812893-52.262317 34.240829l17.120414 4.505372c2.703223-17.120414 14.417191-25.230084 34.240829-24.32901 20.724712-0.901074 30.636531 9.010744 28.834382 30.636531-4.505372 3.604298-18.021489 6.307521-40.54835 9.010744-27.933307 2.703223-41.449424 15.318265-42.350498 37.845126 1.802149 18.922563 14.417191 29.735456 39.647275 30.636531 20.724712 0 36.042977-6.307521 45.954796-18.922563 0 6.307521 1.802149 11.713968 5.406446 16.21934h17.120415c-4.505372-5.406447-7.208595-14.417191-6.307521-27.032233v-47.756945z m-18.021488 29.735456c-1.802149 20.724712-15.318265 31.537605-39.647276 33.339754-17.120414 0-26.131159-6.307521-26.131158-18.021488-0.901074-12.615042 9.911819-19.823638 31.537605-22.526861 20.724712-1.802149 32.43868-4.505372 34.240829-9.010745v16.21934zM5476.457774 953.716194c-9.010744 0.901074-13.516117-4.505372-12.615042-14.417191v-78.393476h21.625786V847.389411h-21.625786v-39.647275l-17.120415 9.010744V847.389411h-16.219339v14.417191h16.219339v78.393476c-0.901074 18.021489 7.208595 26.131159 24.32901 25.230084 6.307521 0 12.615042-0.901074 18.021489-3.604298l-3.604298-9.010744c-2.703223 0.901074-5.406447 0.901074-9.010744 0.901074zM5505.292156 847.389411h17.120414v116.238602h-17.120414zM5505.292156 804.137838h17.120414v21.625786h-17.120414zM5599.904971 844.686188c-36.042977 0.901074-54.965541 21.625786-55.866615 63.07521 1.802149 36.944052 19.823638 55.866615 54.064466 58.569838 36.042977-0.901074 54.064466-20.724712 54.064466-60.371987-0.901074-39.647275-18.922563-59.470913-52.262317-61.273061z m-0.901074 109.030006c-24.32901-0.901074-36.944052-16.21934-37.845126-45.954796 0.901074-31.537605 12.615042-47.756945 37.845126-48.65802 21.625786 1.802149 33.339754 18.021489 35.141903 47.756946 0 29.735456-11.713968 45.053722-35.141903 46.85587zM5731.461839 843.785113c-16.21934 0.901074-29.735456 7.208595-38.746201 20.724712v-18.021489h-17.120414v116.238602l17.120414-0.901074v-71.18488c1.802149-19.823638 13.516117-30.636531 34.240828-33.339754 18.021489 0.901074 27.032233 11.713968 27.032234 32.438679v72.085955h17.120414v-73.888104c0-28.834382-13.516117-44.152647-39.647275-44.152647zM5872.930525 804.137838H5804.448868v159.490175h18.021489v-64.877359h49.559093c36.042977-0.901074 54.965541-16.21934 54.965541-47.756945-3.604298-29.735456-21.625786-45.053722-54.064466-46.855871z m-4.505372 79.29455h-46.855871v-63.07521h46.855871c25.230084 0.901074 37.845126 10.812893 39.647275 30.636531-0.901074 20.724712-14.417191 31.537605-39.647275 32.438679zM5949.521852 804.137838h17.120414v158.5891h-17.120414zM6091.891612 888.838835c0.901074-30.636531-14.417191-45.053722-45.954796-45.053722-28.834382-0.901074-45.954796 10.812893-52.262317 34.240829l17.120414 4.505372c2.703223-17.120414 14.417191-25.230084 34.240829-24.32901 20.724712-0.901074 30.636531 9.010744 28.834382 30.636531-4.505372 3.604298-18.021489 6.307521-40.54835 9.010744-27.933307 2.703223-41.449424 15.318265-42.350498 37.845126 1.802149 18.922563 14.417191 29.735456 39.647275 30.636531 20.724712 0 36.042977-6.307521 45.954796-18.922563 0 6.307521 1.802149 11.713968 5.406447 16.21934h17.120414c-4.505372-5.406447-7.208595-14.417191-6.307521-27.032233v-47.756945z m-18.021488 29.735456c-1.802149 20.724712-15.318265 31.537605-39.647275 33.339754-17.120414 0-26.131159-6.307521-26.131159-18.021488-0.901074-12.615042 9.911819-19.823638 31.537605-22.526861 20.724712-1.802149 32.43868-4.505372 34.240829-9.010745v16.21934zM6154.966823 953.716194c-9.010744 0.901074-13.516117-4.505372-12.615042-14.417191v-78.393476h21.625786V847.389411h-21.625786v-39.647275l-17.120414 9.010744V847.389411h-16.21934v14.417191h16.21934v78.393476c-0.901074 18.021489 7.208595 26.131159 24.329009 25.230084 6.307521 0 12.615042-0.901074 18.021489-3.604298l-3.604298-9.010744c-2.703223 0.901074-6.307521 0.901074-9.010744 0.901074zM6186.504428 832.97222V847.389411h-18.021489v14.417191h18.021489v100.920336h17.120414V861.806602h24.32901V847.389411h-24.32901l0.901075-15.318266c-0.901074-10.812893 4.505372-16.21934 14.417191-16.219339 5.406447 0 10.812893 0.901074 15.318265 2.703223l3.604298-12.615042c-7.208595-2.703223-15.318265-3.604298-23.427935-3.604298-18.922563-0.901074-27.933307 9.010744-27.933308 30.636531zM6293.732286 844.686188c-36.042977 0.901074-54.965541 21.625786-55.866615 63.07521 1.802149 36.944052 19.823638 55.866615 54.064466 58.569838 36.042977-0.901074 54.064466-20.724712 54.064466-60.371987-0.901074-39.647275-18.021489-59.470913-52.262317-61.273061z m0 109.030006c-24.32901-0.901074-36.944052-16.21934-37.845126-45.954796 0.901074-31.537605 13.516117-47.756945 37.845126-48.65802 21.625786 1.802149 33.339754 18.021489 35.141903 47.756946-0.901074 29.735456-12.615042 45.053722-35.141903 46.85587zM6387.444027 868.114123l-0.901075-20.724712h-17.120414v116.238602h17.120414v-63.075211c0-12.615042 2.703223-22.526861 7.208596-27.933307 6.307521-7.208595 11.713968-10.812893 18.021489-10.812893 4.505372 0 9.911819 1.802149 14.417191 4.505372l7.208595-16.21934c-6.307521-4.505372-12.615042-6.307521-18.922563-5.406446-12.615042 0.901074-21.625786 8.10967-27.032233 23.427935zM6566.757839 843.785113c-14.417191 0-26.131159 8.10967-34.240828 24.32901-4.505372-16.21934-16.21934-24.32901-36.042977-24.32901-12.615042 0-23.427935 7.208595-31.537606 20.724712v-18.021489h-17.120414v115.337528h17.120414v-72.987029c1.802149-19.823638 12.615042-30.636531 30.636531-31.537605 16.21934-0.901074 23.427935 10.812893 23.427935 32.438679v72.085955h17.120415v-71.18488c1.802149-20.724712 11.713968-31.537605 29.735456-33.339754 16.21934-0.901074 24.32901 10.812893 24.32901 32.438679v72.085955h17.120414v-75.690252c-0.901074-27.933307-14.417191-42.350498-40.54835-42.350499zM1352.240087 659.064854c-20.724712 2.703223-30.636531-8.10967-30.636531-30.636531V295.931857c0-20.724712 9.911819-30.636531 30.636531-30.636531h351.41903c9.911819-8.10967 9.911819-15.318265 0-23.427935h-358.627625c-30.636531 0-45.954796 15.318265-45.954797 45.954796v347.814732c0 33.339754 15.318265 48.658019 45.954797 45.954796h366.737294c9.911819-9.911819 9.911819-18.021489 0-23.427935h-359.528699z"
          fill="" p-id="10092"></path>
    <path d="M1691.945149 458.125255h-162.193398c5.406447-27.933307 6.307521-59.470913 3.604297-92.810667h123.447198c9.911819-8.10967 9.911819-15.318265 0-23.427935h-208.148194c8.10967-12.615042 15.318265-27.933307 23.427935-45.954796 0-15.318265-6.307521-18.922563-18.922563-11.713968-26.131159 56.767689-54.064466 102.722486-84.700997 138.765463-2.703223 15.318265 2.703223 20.724712 15.318265 15.318266 18.021489-20.724712 36.042977-45.053722 54.064466-72.98703h72.98703c2.703223 33.339754 0.901074 63.976285-3.604298 92.810667h-146.875133c-9.911819 8.10967-9.911819 15.318265 0 23.427935h143.270835c-18.021489 62.174136-65.778434 108.128932-143.270835 138.765463-8.10967 12.615042-3.604298 18.922563 11.713968 18.922563 72.085955-26.131159 122.546123-72.085955 150.47943-138.765462 63.976285 59.470913 111.73323 104.524634 143.270835 135.161165 15.318265 5.406447 21.625786 0 18.922563-15.318266-30.636531-30.636531-81.096699-77.492401-150.47943-138.765463h158.5891c11.713968-8.10967 11.713968-16.21934-0.901074-23.427935zM2209.161874 415.774757v-54.064466c2.703223-27.933307-12.615042-42.350498-45.954796-42.350499h-173.907366c-27.933307 0-42.350498 14.417191-42.350498 42.350499V450.91666c2.703223 87.40422-17.120414 163.094473-57.668764 227.971832 2.703223 15.318265 9.911819 18.021489 23.427935 8.10967 41.449424-69.382731 60.371987-145.072984 57.668764-227.971832h189.225631c36.042977 1.802149 52.262317-12.615042 49.559094-43.251573z m-22.526861-4.505372c2.703223 18.021489-8.10967 26.131159-30.63653 23.427935h-185.621334v-69.382732c0-15.318265 8.10967-23.427935 23.427935-23.427935h162.193399c23.427935 0 33.339754 9.010744 30.63653 27.032233v42.350499zM1838.820282 357.204918v135.161166l-62.174136 27.032233c-9.911819 12.615042-8.10967 20.724712 8.10967 23.427935l54.064466-23.427935v131.556867c5.406447 12.615042-14.417191 14.417191-57.668764 3.604298-12.615042 2.703223-15.318265 9.911819-8.10967 23.427935 62.174136 12.615042 91.008518 6.307521 89.206369-18.922563V508.585423l57.668764-30.63653c8.10967-12.615042 3.604298-18.922563-11.713968-18.922563l-45.954796 23.427935V357.204918h62.174136c9.911819-8.10967 9.911819-15.318265 0-23.427935h-62.174136v-89.206369c-8.10967-12.615042-15.318265-12.615042-23.427935 0V333.776983h-65.778434c-9.911819 8.10967-9.911819 15.318265 0 23.427935h65.778434zM2097.428644 299.536155c-9.911819-18.021489-24.32901-38.746201-42.350498-62.174136-15.318265-5.406447-21.625786 0-18.922563 15.318265 15.318265 18.021489 29.735456 36.944052 42.350498 57.668764 12.615042 9.010744 18.922563 4.505372 18.922563-10.812893zM2699.346367 458.125255c9.911819-8.10967 9.911819-15.318265 0-23.427935h-417.197464c-9.911819 8.10967-9.911819 15.318265 0 23.427935h417.197464zM2923.713901 566.254187c-9.911819 8.10967-9.911819 15.318265 0 23.427936h89.206369v96.414964c8.10967 9.911819 15.318265 9.911819 23.427935 0V589.682123h84.700997c9.911819-8.10967 9.911819-15.318265 0-23.427936h-84.700997V395.951119c45.954796 90.107443 100.019262 158.5891 162.193398 204.543897 12.615042 2.703223 18.021489-3.604298 15.318266-18.922563-66.679508-51.361243-125.249346-128.853644-173.907366-231.57613h158.5891c9.911819-8.10967 9.911819-15.318265 0-23.427935h-162.193398v-89.206369c-8.10967-9.911819-15.318265-9.911819-23.427935 0v89.206369h-135.161165c-9.911819 9.911819-9.911819 18.021489 0 23.427935h131.556867c-36.042977 95.51389-91.008518 173.907366-165.797696 235.180427-2.703223 12.615042 2.703223 18.021489 15.318266 15.318266 63.976285-48.658019 116.238602-116.238602 154.083728-200.939599v165.797696h-89.206369zM2765.1248 485.157488c18.021489-20.724712 32.43868-42.350498 42.350499-65.778434v262.212661c8.10967 9.911819 15.318265 9.911819 23.427935 0V377.028556c15.318265-43.251573 27.032233-89.206369 35.141903-135.161165-8.10967-12.615042-15.318265-12.615042-23.427935 0-12.615042 84.700997-45.053722 161.292324-96.414965 227.971832-2.703223 15.318265 3.604298 20.724712 18.922563 15.318265zM3259.814665 481.55319c18.021489-15.318265 36.042977-36.944052 54.064466-65.778433v262.21266c8.10967 15.318265 15.318265 15.318265 23.427935 0V377.028556c18.021489-38.746201 32.43868-83.799922 42.350499-135.161165-8.10967-12.615042-15.318265-12.615042-23.427936 0-18.021489 90.107443-54.965541 164.896622-111.733229 224.367534-2.703223 12.615042 1.802149 17.120414 15.318265 15.318265zM3540.949888 681.591715h104.524635c38.746201 2.703223 54.965541-45.954796 50.460168-146.875133-8.10967-9.911819-15.318265-9.911819-23.427935 0 2.703223 87.40422-8.10967 128.853644-30.636531 123.447198h-96.414964c-20.724712 2.703223-30.636531-5.406447-30.636531-23.427936v-189.225631c63.976285-38.746201 115.337528-81.997774 154.083728-131.556867 0-15.318265-6.307521-20.724712-18.922563-15.318266-26.131159 36.042977-71.18488 75.690252-135.161165 119.8429V241.867391c-8.10967-12.615042-15.318265-12.615042-23.427935 0v189.225631c-36.042977 23.427935-74.789178 42.350498-115.337528 57.668764-8.10967 15.318265-5.406447 23.427935 8.10967 23.427935 23.427935-8.10967 59.470913-26.131159 108.128932-54.064466v185.621334c-0.901074 27.933307 15.318265 40.54835 48.658019 37.845126zM4005.003222 632.032621c-7.208595-30.636531-18.922563-65.778434-35.141903-104.524634-12.615042-9.911819-20.724712-8.10967-23.427935 8.10967 15.318265 38.746201 27.032233 72.085955 35.141903 100.019262 9.911819 9.911819 18.021489 9.010744 23.427935-3.604298zM3792.349656 535.617657c-5.406447 44.152647-17.120414 87.40422-35.141903 131.556867 2.703223 12.615042 9.911819 15.318265 23.427935 8.10967 18.021489-44.152647 29.735456-89.206369 35.141903-135.161165-5.406447-13.516117-13.516117-15.318265-23.427935-4.505372zM4113.132154 546.43055c23.427935 41.449424 45.053722 81.997774 65.778434 123.447197 12.615042 8.10967 18.922563 3.604298 18.922563-11.713967-18.021489-41.449424-38.746201-81.096699-62.174136-119.8429-12.615042-9.911819-20.724712-7.208595-22.526861 8.10967z"
          fill="" p-id="10093"></path>
    <path d="M3861.732387 542.826252v96.414964c0 30.636531 14.417191 45.053722 42.350499 42.350499h138.765462c36.042977 5.406447 53.163392-27.933307 50.460169-100.019262-7.208595-12.615042-15.318265-12.615042-23.427936 0 2.703223 54.064466-6.307521 80.195625-27.032233 77.492401H3912.192555c-18.021489 2.703223-27.032233-5.406447-27.032233-23.427935V542.826252c-8.10967-9.911819-15.318265-9.911819-23.427935 0zM3765.317423 361.710291c43.251573-27.933307 77.492401-54.965541 100.019262-81.096699h150.47943c18.021489 0 21.625786 6.307521 11.713968 18.922563-9.911819 12.615042-23.427935 24.32901-38.746201 35.141903h-173.907365c-9.911819 8.10967-9.911819 15.318265 0 23.427935h289.244893c18.021489 0 26.131159 11.713968 23.427935 35.141903v18.922563h-304.563159c-12.615042 8.10967-12.615042 15.318265 0 23.427935H4128.45042v30.636531c2.703223 18.021489-6.307521 26.131159-27.032233 23.427935h-297.354564c-12.615042 8.10967-12.615042 15.318265 0 23.427936h300.958861c33.339754 2.703223 48.658019-9.911819 45.954797-38.746201v-84.700997c2.703223-36.042977-11.713968-54.064466-42.350499-54.064466h-84.700997c12.615042-9.911819 24.32901-23.427935 35.141903-38.746201 9.911819-26.131159-2.703223-38.746201-38.7462-38.7462h-138.765463l11.713967-15.318266c2.703223-12.615042-5.406447-15.318265-23.427935-8.10967-33.339754 44.152647-72.987029 80.195625-119.8429 108.128933-5.406447 17.120414 0 23.427935 15.318266 18.922563zM4351.916879 319.359792c-20.724712-23.427935-43.251573-45.954796-69.382731-69.382731-15.318265 0-20.724712 6.307521-15.318265 18.922563 26.131159 23.427935 47.756945 45.053722 65.778433 65.778434 15.318265 4.505372 21.625786 0 18.922563-15.318266zM4436.617876 573.462783c98.217113-23.427935 164.896622-71.18488 200.939599-143.270835 0-12.615042-6.307521-18.021489-18.922563-15.318266-33.339754 66.679508-96.414964 111.73323-189.225631 135.161165-8.10967 13.516117-5.406447 21.625786 7.208595 23.427936zM4695.226239 377.028556c-48.658019-27.933307-95.51389-72.085955-138.765463-131.556867-15.318265-18.021489-32.43868-18.021489-50.460168 0-23.427935 45.954796-66.679508 90.107443-131.556868 131.556867-2.703223 12.615042 2.703223 18.922563 15.318266 18.922563 56.767689-36.042977 100.920337-78.393476 131.556867-127.051495 8.10967-8.10967 15.318265-8.10967 23.427935 0 36.042977 54.064466 81.096699 96.414964 135.161166 127.051495 13.516117 0 18.021489-6.307521 15.318265-18.922563zM4286.138446 422.983352c18.021489 0 26.131159 8.10967 23.427935 23.427936v192.829928c2.703223 38.746201 33.339754 24.32901 92.810667-42.350498 2.703223-15.318265-2.703223-21.625786-15.318266-18.922563-36.042977 44.152647-54.064466 57.668764-54.064466 42.350498V442.80699c2.703223-27.933307-9.911819-42.350498-38.7462-42.350499h-50.460169c-9.911819 8.10967-9.911819 15.318265 0 23.427936h42.350499zM4657.381113 504.080051c-45.954796 92.810667-127.051495 146.875133-243.290098 162.193399-9.911819 9.911819-9.010744 18.021489 3.604298 23.427935 118.040751-12.615042 204.543897-69.382731 258.608363-169.401994 0-16.21934-6.307521-20.724712-18.922563-16.21934z"
          fill="" p-id="10094"></path>
    <path d="M4552.856478 338.282355c-28.834382 51.361243-72.085955 87.40422-131.556867 108.128933-9.911819 9.911819-8.10967 17.120414 8.10967 18.922563 63.976285-18.021489 111.73323-54.965541 142.36976-111.73323 2.703223-15.318265-3.604298-20.724712-18.922563-15.318266zM5143.060233 438.301618h-273.926628c-9.911819 8.10967-9.911819 15.318265 0 23.427935h273.926628c10.812893-7.208595 10.812893-15.318265 0-23.427935zM5108.819404 515.794019h-204.543896c-26.131159 0-38.746201 12.615042-38.746201 38.746201v84.700996c0 27.933307 12.615042 41.449424 38.746201 38.746201h204.543896c27.933307 2.703223 41.449424-9.911819 38.746201-38.746201v-84.700996c2.703223-26.131159-10.812893-38.746201-38.746201-38.746201z m15.318266 116.238602c2.703223 18.021489-5.406447 26.131159-23.427935 23.427935h-189.225632c-15.318265 2.703223-23.427935-5.406447-23.427935-23.427935v-69.382731c0-15.318265 8.10967-23.427935 23.427935-23.427936h189.225632c18.021489 0 26.131159 8.10967 23.427935 23.427936v69.382731zM4780.82831 677.987417c8.10967 12.615042 15.318265 12.615042 23.427936 0V368.918886c15.318265-54.064466 26.131159-98.217113 30.63653-131.556867-5.406447-15.318265-12.615042-17.120414-23.427935-3.604298-15.318265 95.51389-45.053722 172.105217-89.206369 231.57613-2.703223 12.615042 2.703223 18.021489 15.318265 15.318265 18.021489-18.021489 32.43868-38.746201 42.350499-62.174136v259.509437zM5178.202136 284.217889h-154.083728c-7.208595-18.021489-18.021489-36.042977-30.636531-54.064466-12.615042-8.10967-18.922563-3.604298-18.922563 11.713968 8.10967 12.615042 15.318265 27.032233 23.427935 42.350498h-150.479431c-9.911819 8.10967-9.911819 15.318265 0 23.427936h331.595392c9.911819-8.10967 9.911819-15.318265-0.901074-23.427936zM5143.060233 365.314588h-273.926628c-9.911819 8.10967-9.911819 15.318265 0 23.427936h273.926628c10.812893-8.10967 10.812893-15.318265 0-23.427936zM5436.810499 531.112284c18.021489 36.042977 30.636531 68.481657 38.7462 96.414965 9.911819 8.10967 18.021489 5.406447 23.427936-8.10967-5.406447-26.131159-18.922563-59.470913-42.350499-100.019262-13.516117-4.505372-19.823638-0.901074-19.823637 11.713967zM5286.331068 539.221954c-12.615042 41.449424-30.636531 77.492401-54.064466 108.128932-2.703223 15.318265 3.604298 20.724712 18.922563 15.318266 23.427935-27.933307 42.350498-66.679508 57.668764-116.238602-4.505372-15.318265-12.615042-18.021489-22.526861-7.208596zM5626.03613 461.729553V314.85442c2.703223-26.131159-12.615042-38.746201-45.954796-38.746201h-146.875133c9.911819-15.318265 18.021489-27.032233 23.427935-35.141903-5.406447-15.318265-14.417191-18.021489-27.032233-8.109669-8.10967 18.021489-17.120414 32.43868-27.032233 42.350498H5317.868673c-30.636531 0-45.954796 12.615042-45.954796 38.746201v146.875132c0 27.933307 12.615042 41.449424 38.746201 38.746201h278.432c27.032233 3.604298 39.647275-9.010744 36.944052-37.845126z m-331.595392-138.765463c0-15.318265 9.911819-23.427935 30.636531-23.427935h246.894395c23.427935 0 33.339754 8.10967 30.636531 23.427935v18.922563h-309.068532v-18.922563z m0 42.350498h309.068531v42.350499h-309.068531v-42.350499z m22.526861 111.73323c-15.318265 2.703223-23.427935-5.406447-23.427936-23.427935v-23.427935h309.068532v23.427935c2.703223 18.021489-5.406447 26.131159-23.427936 23.427935h-262.21266zM5580.081334 539.221954c26.131159 33.339754 50.460168 72.085955 72.987029 116.238602 12.615042 2.703223 18.922563-2.703223 18.922563-15.318265-20.724712-44.152647-45.053722-81.997774-72.987029-116.238602-12.615042-2.703223-18.922563 2.703223-18.922563 15.318265z"
          fill="" p-id="10095"></path>
    <path d="M5587.289929 577.968155c-8.10967-9.911819-15.318265-9.911819-23.427935 0 2.703223 62.174136-9.010744 90.107443-35.141903 84.700997h-135.161165c-15.318265 2.703223-23.427935-5.406447-23.427936-23.427936V535.617657c-7.208595-12.615042-15.318265-12.615042-23.427935 0v111.733229c0 27.933307 12.615042 41.449424 38.746201 38.746201h142.36976c45.053722 4.505372 64.877359-31.537605 59.470913-108.128932zM5877.435897 458.125255c-26.131159-59.470913-57.668764-113.535379-96.414964-162.193398-9.911819-5.406447-17.120414-0.901074-18.922564 11.713968 36.042977 48.658019 68.481657 102.722486 96.414965 162.193398 11.713968 7.208595 18.922563 3.604298 18.922563-11.713968zM6008.09169 454.520957c-5.406447 15.318265 0 20.724712 15.318265 15.318266 51.361243-43.251573 91.008518-99.118188 119.8429-165.797696-2.703223-15.318265-9.911819-18.021489-23.427935-8.10967-22.526861 56.767689-60.371987 109.030007-111.73323 158.5891z"
          fill="" p-id="10096"></path>
    <path d="M5957.631522 515.794019h200.939599c12.615042-8.10967 12.615042-15.318265 0-23.427935H5957.631522V260.789954h185.621333c12.615042-8.10967 12.615042-15.318265 0-23.427935h-385.659858c-12.615042 8.10967-12.615042 15.318265 0 23.427935h177.511664v231.57613h-200.939599c-12.615042 8.10967-12.615042 15.318265 0 23.427935h200.939599v165.797696c8.10967 9.911819 15.318265 9.911819 23.427935 0V515.794019zM6529.813788 287.822187c-12.615042 0-18.021489 6.307521-15.318266 18.922563 28.834382 27.933307 50.460168 51.361243 65.778434 69.382732-136.06224 15.318265-237.883651 24.32901-304.563159 27.032233 54.064466-36.042977 105.425709-91.008518 154.083728-165.797696 0-12.615042-7.208595-17.120414-23.427935-11.713968-44.152647 72.085955-100.920337 131.556867-170.303068 177.511664-8.10967 9.911819-6.307521 18.021489 3.604298 23.427935 128.853644-8.10967 246.894395-18.021489 355.023327-30.636531 15.318265 18.021489 29.735456 36.042977 42.350498 54.064466 15.318265 5.406447 21.625786 0 18.922563-15.318265-32.43868-48.658019-74.789178-97.316039-126.15042-146.875133zM6567.658914 458.125255h-251.399767c-27.933307 0-42.350498 12.615042-42.350499 38.746201v146.875133c0 27.933307 12.615042 41.449424 38.746201 38.7462h255.004065c27.933307 2.703223 41.449424-9.911819 38.746201-38.7462V496.871456c2.703223-26.131159-9.911819-38.746201-38.746201-38.746201z m16.21934 177.511664c2.703223 18.021489-5.406447 26.131159-23.427936 23.427935h-239.685799c-15.318265 2.703223-23.427935-5.406447-23.427936-23.427935V504.080051c0-15.318265 9.010744-23.427935 27.032234-23.427935h235.180427c18.021489 0 26.131159 8.10967 23.427935 23.427935v131.556868z"
          fill="" p-id="10097"></path>
</svg>