<?xml version="1.0" standalone="no"?><!DOCTYPE svg PUBLIC "-//W3C//DTD SVG 1.1//EN"
        "http://www.w3.org/Graphics/SVG/1.1/DTD/svg11.dtd">
<svg t="1496374520033" class="icon" style="" viewBox="0 0 1024 1024" version="1.1" xmlns="http://www.w3.org/2000/svg"
     p-id="849" width="20" height="20">
    <defs>
        <style type="text/css"></style>
    </defs>
    <path d="M449.6384 673.9968c-17.1008 17.1008-17.1008 51.2 0 68.3008s51.2 17.1008 68.3008 0c17.1008-17.1008 17.1008-51.2 0-68.3008C500.8384 656.896 470.9376 656.896 449.6384 673.9968z"
          fill="#1296db" p-id="850"></path>
    <path d="M867.7376 861.696c-17.1008-226.0992-187.6992-298.7008-187.6992-298.7008-21.2992-12.8-42.7008-17.1008-64-25.6 68.3008-34.0992 115.2-106.7008 115.2-192 0-119.5008-98.0992-217.6-217.6-217.6s-217.6 98.0992-217.6 217.6c0 81.1008 46.8992 153.6 115.2 192-247.5008 68.3008-256 320-256 320-4.3008 42.7008 25.6 38.4 25.6 38.4l648.4992 0C880.5376 900.096 867.7376 861.696 867.7376 861.696zM479.5392 801.9968c0 0-89.6-4.3008-93.9008-85.2992 0 0-12.8-81.1008 68.3008-106.7008l-4.3008-328.4992 46.8992 0 0 76.8 29.9008 0c0 0 8.4992 0 8.4992-8.4992l0-17.1008c0 0 0-12.8 12.8-8.4992l64 0L611.7376 362.496l-42.7008 0 0 51.2 42.7008 4.3008 0 38.4-59.6992 0c0 0-17.1008 0-17.1008-12.8l0-21.2992-34.0992 0 0 192c0 0 76.8 12.8 76.8 93.9008C577.6384 708.096 586.1376 801.9968 479.5392 801.9968z"
          fill="#1296db" p-id="851"></path>
</svg>